<svg width="46" height="42" viewBox="0 0 46 42" fill="none" xmlns="http://www.w3.org/2000/svg">
<path fill-rule="evenodd" clip-rule="evenodd" d="M43.9786 34.375L26.2251 3.625C24.6855 0.958332 20.8365 0.958334 19.2969 3.625L1.54336 34.375C0.00375724 37.0417 1.92826 40.375 5.00746 40.375H40.5145C43.5937 40.375 45.5182 37.0417 43.9786 34.375ZM27.0911 3.125C25.1666 -0.208337 20.3554 -0.208329 18.4308 3.125L0.677332 33.875C-1.24717 37.2083 1.15846 41.375 5.00746 41.375H40.5145C44.3635 41.375 46.7691 37.2083 44.8446 33.875L27.0911 3.125Z" fill="#6B8DAE"/>
<path d="M22 32.28V30.3H23.764V32.28H22ZM22 27.96V15H23.764V27.96H22Z" fill="#6B8DAE"/>
</svg>
