<svg width="46" height="46" viewBox="0 0 46 46" fill="none" xmlns="http://www.w3.org/2000/svg">
<circle cx="23" cy="23" r="23" fill="#FF2F22"/>
<path d="M18.06 29.9995L16.62 28.5595L28.149 17.0395L29.589 18.4885L18.06 29.9995ZM26.889 30.2695C26.295 30.2695 25.752 30.1255 25.26 29.8375C24.774 29.5435 24.384 29.1535 24.09 28.6675C23.796 28.1755 23.649 27.6295 23.649 27.0295C23.649 26.4415 23.799 25.9015 24.099 25.4095C24.399 24.9175 24.795 24.5245 25.287 24.2305C25.779 23.9365 26.313 23.7895 26.889 23.7895C27.483 23.7895 28.026 23.9365 28.518 24.2305C29.01 24.5185 29.4 24.9085 29.688 25.4005C29.982 25.8865 30.129 26.4295 30.129 27.0295C30.129 27.6295 29.982 28.1755 29.688 28.6675C29.4 29.1535 29.01 29.5435 28.518 29.8375C28.026 30.1255 27.483 30.2695 26.889 30.2695ZM26.889 28.4155C27.135 28.4155 27.363 28.3525 27.573 28.2265C27.789 28.1005 27.96 27.9325 28.086 27.7225C28.212 27.5125 28.275 27.2815 28.275 27.0295C28.275 26.7775 28.212 26.5465 28.086 26.3365C27.96 26.1265 27.789 25.9585 27.573 25.8325C27.363 25.7065 27.135 25.6435 26.889 25.6435C26.637 25.6435 26.406 25.7065 26.196 25.8325C25.986 25.9585 25.815 26.1265 25.683 26.3365C25.557 26.5465 25.494 26.7775 25.494 27.0295C25.494 27.2815 25.557 27.5125 25.683 27.7225C25.815 27.9325 25.986 28.1005 26.196 28.2265C26.406 28.3525 26.637 28.4155 26.889 28.4155ZM19.32 23.2495C18.726 23.2495 18.183 23.1055 17.691 22.8175C17.199 22.5235 16.806 22.1335 16.512 21.6475C16.224 21.1555 16.08 20.6095 16.08 20.0095C16.08 19.4215 16.23 18.8815 16.53 18.3895C16.83 17.8975 17.226 17.5045 17.718 17.2105C18.21 16.9165 18.744 16.7695 19.32 16.7695C19.914 16.7695 20.454 16.9165 20.94 17.2105C21.432 17.4985 21.825 17.8885 22.119 18.3805C22.413 18.8665 22.56 19.4095 22.56 20.0095C22.56 20.6095 22.413 21.1555 22.119 21.6475C21.825 22.1335 21.432 22.5235 20.94 22.8175C20.454 23.1055 19.914 23.2495 19.32 23.2495ZM19.32 21.3955C19.572 21.3955 19.803 21.3325 20.013 21.2065C20.223 21.0805 20.391 20.9125 20.517 20.7025C20.643 20.4925 20.706 20.2615 20.706 20.0095C20.706 19.7575 20.643 19.5265 20.517 19.3165C20.391 19.1065 20.223 18.9385 20.013 18.8125C19.803 18.6865 19.572 18.6235 19.32 18.6235C19.068 18.6235 18.837 18.6865 18.627 18.8125C18.417 18.9385 18.249 19.1065 18.123 19.3165C17.997 19.5265 17.934 19.7575 17.934 20.0095C17.934 20.2615 17.997 20.4925 18.123 20.7025C18.249 20.9125 18.417 21.0805 18.627 21.2065C18.837 21.3325 19.068 21.3955 19.32 21.3955Z" fill="white"/>
</svg>
