<svg width="130" height="130" viewBox="0 0 130 130" fill="none" xmlns="http://www.w3.org/2000/svg">
<circle cx="65.5" cy="65.5" r="37.5" fill="white"/>
<path fill-rule="evenodd" clip-rule="evenodd" d="M21 29C21 24.0294 25.0294 20 30 20H93C97.9707 20 102 24.0295 102 29V54.875C102 57.3603 99.9853 59.375 97.5 59.375C95.0147 59.375 93 57.3603 93 54.875V29H30V101H61.5C63.9853 101 66 103.015 66 105.5C66 107.985 63.9853 110 61.5 110H30C25.0295 110 21 105.971 21 101V29Z" fill="#2A99FF"/>
<path fill-rule="evenodd" clip-rule="evenodd" d="M98.7932 98.688C96.6519 100.7 94.1012 102.596 91.2228 104.399C88.8782 105.867 85.8718 105.867 83.5272 104.399C80.6488 102.596 78.0981 100.7 75.9568 98.688C75.827 98.566 75.6789 98.4286 75.5156 98.2771C74.2791 97.1294 72.1637 95.1662 70.3647 92.853C68.3522 90.2654 66 86.3448 66 81.5068C66 73.3848 72.9291 67.25 80.8977 67.25C83.204 67.25 85.4054 67.7549 87.375 68.6658C89.3446 67.7549 91.546 67.25 93.8523 67.25C101.821 67.25 108.75 73.3848 108.75 81.5068C108.75 86.3448 106.398 90.2654 104.385 92.853C102.586 95.1662 100.471 97.1294 99.2344 98.2771C99.0712 98.4286 98.9231 98.566 98.7932 98.688ZM91.8546 74.448C92.4921 74.2892 93.1617 74.2045 93.8523 74.2045C98.145 74.2045 101.625 77.4739 101.625 81.5068C101.625 86.4389 97.0517 90.6971 94.3497 93.2129C94.1756 93.375 94.0092 93.5299 93.8523 93.6773C92.1251 95.2999 89.9658 96.9228 87.375 98.5455C84.7842 96.9228 82.6249 95.2999 80.8977 93.6773C80.7408 93.5299 80.5744 93.375 80.4003 93.2129C77.6983 90.6971 73.125 86.4389 73.125 81.5068C73.125 77.4739 76.605 74.2045 80.8977 74.2045C81.5883 74.2045 82.2579 74.2892 82.8954 74.448C84.7533 74.9109 86.3382 76.004 87.375 77.4688C88.4118 76.004 89.9967 74.9109 91.8546 74.448Z" fill="#2A99FF"/>
<path fill-rule="evenodd" clip-rule="evenodd" d="M39 42.5C39 40.0147 41.0147 38 43.5 38H79.5C81.9853 38 84 40.0147 84 42.5C84 44.9853 81.9853 47 79.5 47H43.5C41.0147 47 39 44.9853 39 42.5Z" fill="#2A99FF"/>
</svg>
