<svg width="130" height="130" viewBox="0 0 130 130" fill="none" xmlns="http://www.w3.org/2000/svg">
<circle cx="65.5" cy="65.5" r="37.5" fill="white"/>
<g opacity="0.95">
<path fill-rule="evenodd" clip-rule="evenodd" d="M62.1125 39.6066C63.7101 38.009 66.3004 38.009 67.898 39.6066L94.4891 66.1978C95.2563 66.965 95.6873 68.0055 95.6873 69.0905V105.909C95.6873 108.168 93.8558 110 91.5964 110H38.4141C36.1547 110 34.3231 108.168 34.3231 105.909V69.0905C34.3231 68.0055 34.7541 66.965 35.5213 66.1978L62.1125 39.6066ZM42.505 70.785V101.818H87.5054V70.785L65.0052 48.2848L42.505 70.785Z" fill="#2A99FF"/>
<path d="M23.2489 60.0618C22.8582 60.4392 22.5465 60.8906 22.3321 61.3897C22.1177 61.8888 22.0049 62.4256 22.0002 62.9688C21.9954 63.512 22.0989 64.0507 22.3046 64.5535C22.5103 65.0562 22.8141 65.513 23.1982 65.8971C23.5823 66.2812 24.0391 66.585 24.5418 66.7907C25.0446 66.9964 25.5833 67.0999 26.1265 67.0952C26.6697 67.0904 27.2065 66.9776 27.7056 66.7632C28.2047 66.5488 28.6561 66.2371 29.0335 65.8464L23.2489 60.0618ZM65.0052 24.0901L67.8975 21.1978C67.1304 20.4308 66.09 20 65.0052 20C63.9205 20 62.8801 20.4308 62.1129 21.1978L65.0052 24.0901ZM100.977 65.8464C101.354 66.2371 101.806 66.5488 102.305 66.7632C102.804 66.9776 103.341 67.0904 103.884 67.0952C104.427 67.0999 104.966 66.9964 105.469 66.7907C105.971 66.585 106.428 66.2812 106.812 65.8971C107.196 65.513 107.5 65.0562 107.706 64.5535C107.912 64.0507 108.015 63.512 108.01 62.9688C108.006 62.4256 107.893 61.8888 107.678 61.3897C107.464 60.8906 107.152 60.4392 106.762 60.0618L100.977 65.8464ZM29.0335 65.8464L67.8975 26.9824L62.1129 21.1978L23.2489 60.0618L29.0335 65.8464ZM62.1129 26.9824L100.977 65.8464L106.762 60.0618L67.8975 21.1978L62.1129 26.9824Z" fill="#2A99FF"/>
<path fill-rule="evenodd" clip-rule="evenodd" d="M65.0052 64.9996C67.2646 64.9996 69.0962 66.8311 69.0962 69.0905V75.2269H75.2326C77.492 75.2269 79.3236 77.0585 79.3236 79.3179C79.3236 81.5773 77.492 83.4088 75.2326 83.4088H69.0962V89.5453C69.0962 91.8046 67.2646 93.6362 65.0052 93.6362C62.7459 93.6362 60.9143 91.8046 60.9143 89.5453V83.4088H54.7779C52.5185 83.4088 50.6869 81.5773 50.6869 79.3179C50.6869 77.0585 52.5185 75.2269 54.7779 75.2269H60.9143V69.0905C60.9143 66.8311 62.7459 64.9996 65.0052 64.9996Z" fill="#2A99FF"/>
</g>
</svg>
