<svg width="130" height="130" viewBox="0 0 130 130" fill="none" xmlns="http://www.w3.org/2000/svg">
<circle cx="65.5" cy="65.5" r="37.5" fill="white"/>
<path d="M65.1818 22.6002C65.7529 21.8853 66.46 21.2907 67.2622 20.851C68.0644 20.4113 68.9458 20.1352 69.8554 20.0386C70.765 19.9421 71.6846 20.027 72.5612 20.2885C73.4377 20.55 74.2538 20.9829 74.962 21.5621L97.5242 39.9999C98.765 41.0137 99.6156 42.4269 99.931 43.9984C100.246 45.5699 100.007 47.2022 99.2533 48.6167C97.2808 48.0134 95.2293 47.7079 93.1667 47.71H91.0917L93.1528 45.3568L81.27 35.6465L71.4691 47.7169H62.5535L75.9096 31.2724L70.5837 26.919L53.9976 47.71H45.1443L65.1818 22.6002ZM82.7917 82.3156C81.8745 82.3156 80.9948 82.6802 80.3463 83.3291C79.6977 83.9781 79.3333 84.8583 79.3333 85.7761C79.3333 86.6939 79.6977 87.5741 80.3463 88.2231C80.9948 88.8721 81.8745 89.2367 82.7917 89.2367H89.7083C90.6255 89.2367 91.5052 88.8721 92.1537 88.2231C92.8023 87.5741 93.1667 86.6939 93.1667 85.7761C93.1667 84.8583 92.8023 83.9781 92.1537 83.3291C91.5052 82.6802 90.6255 82.3156 89.7083 82.3156H82.7917ZM30.9167 51.1706C30.9167 50.2528 31.281 49.3726 31.9296 48.7236C32.5782 48.0746 33.4578 47.71 34.375 47.71H38.2345L43.7333 40.7889H34.375C31.6234 40.7889 28.9845 41.8827 27.0388 43.8296C25.0931 45.7766 24 48.4172 24 51.1706V92.6972C24 97.2862 25.8218 101.687 29.0646 104.932C32.3074 108.177 36.7056 110 41.2917 110H93.1667C96.8355 110 100.354 108.542 102.948 105.946C105.543 103.35 107 99.829 107 96.1578V68.4734C107 64.8022 105.543 61.2813 102.948 58.6854C100.354 56.0895 96.8355 54.6311 93.1667 54.6311H34.375C33.4578 54.6311 32.5782 54.2665 31.9296 53.6176C31.281 52.9686 30.9167 52.0884 30.9167 51.1706ZM30.9167 92.6972V60.9639C31.9957 61.3446 33.1646 61.5522 34.375 61.5522H93.1667C95.0011 61.5522 96.7604 62.2814 98.0575 63.5794C99.3546 64.8773 100.083 66.6378 100.083 68.4734V96.1578C100.083 97.9934 99.3546 99.7538 98.0575 101.052C96.7604 102.35 95.0011 103.079 93.1667 103.079H41.2917C38.54 103.079 35.9011 101.985 33.9554 100.038C32.0097 98.0912 30.9167 95.4506 30.9167 92.6972Z" fill="#2A99FF"/>
</svg>
