<svg width="130" height="130" viewBox="0 0 130 130" fill="none" xmlns="http://www.w3.org/2000/svg">
<circle cx="65.5" cy="65.5" r="37.5" fill="white"/>
<path d="M87.6875 38.8H78.8125V29.9H87.6875C88.8644 29.9 89.9931 29.4312 90.8253 28.5966C91.6575 27.7621 92.125 26.6302 92.125 25.45C92.125 24.2698 91.6575 23.1379 90.8253 22.3034C89.9931 21.4688 88.8644 21 87.6875 21H52.1875C46.303 21 40.6595 23.3442 36.4986 27.5169C32.3376 31.6896 30 37.3489 30 43.25V105.55C30 106.73 30.4675 107.862 31.2997 108.697C32.1319 109.531 33.2606 110 34.4375 110C35.6144 110 36.7431 109.531 37.5753 108.697C38.4075 107.862 38.875 106.73 38.875 105.55V43.25C38.875 39.7094 40.2776 36.3137 42.7741 33.8101C45.2707 31.3065 48.6568 29.9 52.1875 29.9H69.9375V38.8H61.0625C57.5318 38.8 54.1457 40.2065 51.6491 42.7101C49.1526 45.2137 47.75 48.6094 47.75 52.15V74.0885C47.7492 76.2908 48.2917 78.4592 49.3292 80.4002C50.3667 82.3413 51.8669 83.9949 53.6963 85.2135L61.0625 90.153V92.2C61.0625 94.5604 61.9975 96.8242 63.6619 98.4932C65.3263 100.162 67.5837 101.1 69.9375 101.1V105.55C69.9375 106.73 70.405 107.862 71.2372 108.697C72.0694 109.531 73.1981 110 74.375 110C75.5519 110 76.6806 109.531 77.5128 108.697C78.345 107.862 78.8125 106.73 78.8125 105.55V101.1C81.1663 101.1 83.4237 100.162 85.0881 98.4932C86.7525 96.8242 87.6875 94.5604 87.6875 92.2V90.153L95.0537 85.2135C96.8831 83.9949 98.3833 82.3413 99.4208 80.4002C100.458 78.4592 101.001 76.2908 101 74.0885V52.15C101 48.6094 99.5974 45.2137 97.1009 42.7101C94.6043 40.2065 91.2182 38.8 87.6875 38.8ZM83.25 61.05H92.125V65.5H87.6875C86.5106 65.5 85.3819 65.9688 84.5497 66.8034C83.7175 67.6379 83.25 68.7698 83.25 69.95C83.25 71.1302 83.7175 72.2621 84.5497 73.0966C85.3819 73.9312 86.5106 74.4 87.6875 74.4H92.125C92.0776 75.0756 91.8771 75.7313 91.5388 76.3174C91.2004 76.9035 90.7331 77.4044 90.1725 77.782L80.8537 84.0565C80.2351 84.4545 79.7247 85.0003 79.3684 85.645C79.0121 86.2896 78.8211 87.013 78.8125 87.75V92.2H69.9375V87.75C69.9337 87.0171 69.7495 86.2964 69.4011 85.652C69.0527 85.0077 68.5511 84.4596 67.9406 84.0565L58.6219 77.782C58.0114 77.3789 57.5098 76.8308 57.1614 76.1865C56.813 75.5421 56.6288 74.8214 56.625 74.0885V52.15C56.625 50.9698 57.0925 49.8379 57.9247 49.0034C58.7569 48.1688 59.8856 47.7 61.0625 47.7H87.6875C88.8644 47.7 89.9931 48.1688 90.8253 49.0034C91.6575 49.8379 92.125 50.9698 92.125 52.15H83.25C82.0731 52.15 80.9444 52.6188 80.1122 53.4534C79.28 54.2879 78.8125 55.4198 78.8125 56.6C78.8125 57.7802 79.28 58.9121 80.1122 59.7466C80.9444 60.5812 82.0731 61.05 83.25 61.05Z" fill="#2A99FF"/>
</svg>
