<svg width="130" height="130" viewBox="0 0 130 130" fill="none" xmlns="http://www.w3.org/2000/svg">
<circle cx="65.5" cy="65.5" r="37.5" fill="white"/>
<path fill-rule="evenodd" clip-rule="evenodd" d="M29.1667 25C28.0616 25 27.0018 25.439 26.2204 26.2204C25.439 27.0018 25 28.0616 25 29.1667V43.5C25 45.1569 23.6569 46.5 22 46.5C20.3431 46.5 19 45.1569 19 43.5V29.1667C19 26.4703 20.0711 23.8844 21.9777 21.9777C23.8844 20.0711 26.4703 19 29.1667 19H43.5C45.1569 19 46.5 20.3431 46.5 22C46.5 23.6569 45.1569 25 43.5 25H29.1667ZM83.5 22C83.5 20.3431 84.8431 19 86.5 19H100.833C103.53 19 106.116 20.0711 108.022 21.9777C109.929 23.8844 111 26.4703 111 29.1667V43.5C111 45.1569 109.657 46.5 108 46.5C106.343 46.5 105 45.1569 105 43.5V29.1667C105 28.0616 104.561 27.0018 103.78 26.2204C102.998 25.439 101.938 25 100.833 25H86.5C84.8431 25 83.5 23.6569 83.5 22ZM48.6091 52.1553C46.5479 52.3843 44.6984 53.2725 43.5111 54.8556C40.8247 58.4375 41.8979 61.5441 43.2324 62.8787L65 84.6462L86.7676 62.8787C88.1021 61.5441 89.1753 58.4375 86.4889 54.8556C85.3016 53.2725 83.4521 52.3843 81.3909 52.1553C79.2744 51.9201 77.3233 52.4271 76.2197 53.1628C75.4489 53.6767 74.7948 54.1977 74.1121 54.7513C74.0581 54.795 74.0035 54.8394 73.9481 54.8843C73.3357 55.3819 72.6369 55.9495 71.8898 56.4475C70.0801 57.654 68.0126 58.4444 65 58.4444C61.9874 58.4444 59.9199 57.654 58.1102 56.4475C57.3631 55.9495 56.6643 55.3819 56.0519 54.8843C55.9965 54.8394 55.9419 54.795 55.8879 54.7513C55.2052 54.1977 54.5511 53.6767 53.7803 53.1628C52.6767 52.4271 50.7256 51.9201 48.6091 52.1553ZM47.9465 46.192C51.205 45.8299 54.6288 46.5174 57.1085 48.1705C58.1294 48.8511 58.9685 49.5246 59.6667 50.0907C59.7042 50.1211 59.7411 50.1511 59.7775 50.1806C60.4499 50.726 60.9364 51.1206 61.4384 51.4552C62.3162 52.0404 63.2348 52.4444 65 52.4444C66.7652 52.4444 67.6838 52.0404 68.5616 51.4552C69.0636 51.1206 69.5501 50.726 70.2225 50.1806C70.2589 50.1511 70.2958 50.1211 70.3332 50.0907C71.0315 49.5246 71.8706 48.8511 72.8915 48.1705C75.3712 46.5174 78.795 45.8299 82.0535 46.192C85.3673 46.5602 88.8928 48.0608 91.2889 51.2556C95.7691 57.2292 94.4534 63.6781 91.0102 67.1213L67.1213 91.0102C65.9497 92.1818 64.0503 92.1818 62.8787 91.0102L38.9898 67.1213C35.5466 63.6781 34.2309 57.2292 38.7111 51.2556C41.1072 48.0608 44.6327 46.5602 47.9465 46.192ZM22 83.5C23.6569 83.5 25 84.8431 25 86.5V100.833C25 101.938 25.439 102.998 26.2204 103.78C27.0018 104.561 28.0616 105 29.1667 105H43.5C45.1569 105 46.5 106.343 46.5 108C46.5 109.657 45.1569 111 43.5 111H29.1667C26.4703 111 23.8844 109.929 21.9777 108.022C20.0711 106.116 19 103.53 19 100.833V86.5C19 84.8431 20.3431 83.5 22 83.5ZM108 83.5C109.657 83.5 111 84.8431 111 86.5V100.833C111 103.53 109.929 106.116 108.022 108.022C106.116 109.929 103.53 111 100.833 111H86.5C84.8431 111 83.5 109.657 83.5 108C83.5 106.343 84.8431 105 86.5 105H100.833C101.938 105 102.998 104.561 103.78 103.78C104.561 102.998 105 101.938 105 100.833V86.5C105 84.8431 106.343 83.5 108 83.5Z" fill="#2A99FF" stroke="#2A99FF" stroke-width="2" stroke-linecap="round" stroke-linejoin="round"/>
</svg>
