<svg width="12" height="6" viewBox="0 0 12 6" fill="none" xmlns="http://www.w3.org/2000/svg">
<path d="M11.7625 1.18894L6.44327 5.84793C6.37995 5.90323 6.31135 5.9423 6.23747 5.96516C6.16359 5.98839 6.08443 6 6 6C5.91557 6 5.83641 5.98839 5.76253 5.96516C5.68865 5.9423 5.62005 5.90323 5.55673 5.84793L0.221636 1.18894C0.0738784 1.05991 -2.22989e-07 0.898618 -2.31449e-07 0.70507C-2.39909e-07 0.511521 0.0791554 0.345623 0.237467 0.207374C0.395778 0.0691247 0.580475 4.51464e-07 0.791556 4.42237e-07C1.00264 4.3301e-07 1.18733 0.0691246 1.34565 0.207374L6 4.27189L10.6544 0.207373C10.8021 0.078341 10.9841 0.0138245 11.2002 0.0138245C11.4168 0.0138244 11.6042 0.0829491 11.7625 0.221198C11.9208 0.359447 12 0.520737 12 0.705069C12 0.889401 11.9208 1.05069 11.7625 1.18894Z" fill="#B3B3B3"/>
</svg>
