<svg width="70" height="83" viewBox="0 0 70 83" fill="none" xmlns="http://www.w3.org/2000/svg">
<path d="M35 5.01398L37.4638 2.0413L35 0L32.5362 2.0413L35 5.01398Z" fill="url(#paint0_linear_141_29)"/>
<path d="M14.6198 50.766C14.6198 50.766 14.6189 50.7625 18.3548 49.7862L14.6189 50.7625L13.6424 47.0273L21.1143 45.0747L22.0875 48.7975L22.088 48.7993C22.0909 48.8097 22.0976 48.8336 22.1083 48.8702C22.1299 48.9435 22.1675 49.0672 22.2228 49.2342C22.3336 49.569 22.5137 50.0731 22.7753 50.6914C23.3023 51.9373 24.138 53.5947 25.3637 55.2533C27.7861 58.5312 31.6109 61.6948 37.7212 61.9757L41.5786 62.153L41.2238 69.8662L37.3665 69.6889C28.3001 69.2721 22.5304 64.4127 19.1525 59.8419C17.4781 57.5762 16.362 55.3529 15.6625 53.6992C15.3107 52.8677 15.0589 52.1673 14.891 51.66C14.8069 51.4059 14.7435 51.1992 14.6988 51.0473C14.6765 50.9714 14.6588 50.909 14.6456 50.8613L14.629 50.8006L14.6232 50.7787L14.6208 50.7699L14.6198 50.766Z" fill="url(#paint1_linear_141_29)"/>
<path fill-rule="evenodd" clip-rule="evenodd" d="M35 5.01398C32.5362 2.0413 32.5349 2.04239 32.5349 2.04239L32.5059 2.06646L32.4313 2.12883C32.367 2.18263 32.2741 2.26072 32.1545 2.36205C31.9152 2.56469 31.5688 2.86038 31.1306 3.24071C30.2545 4.00112 29.0098 5.10121 27.5191 6.47348C24.5426 9.21346 20.5614 13.0605 16.5679 17.4718C12.5878 21.8681 8.51728 26.9103 5.42075 32.0406C2.37623 37.0847 0 42.6551 0 48.0067C0 67.333 15.6702 83 35 83C54.3299 83 70 67.333 70 48.0067C70 42.6551 67.6238 37.0847 64.5793 32.0406C61.4827 26.9103 57.4122 21.8681 53.4321 17.4718C49.4386 13.0605 45.4574 9.21346 42.4809 6.47348C40.9902 5.10121 39.7455 4.00112 38.8694 3.24071C38.4312 2.86038 38.0848 2.56469 37.8455 2.36205C37.7259 2.26072 37.633 2.18263 37.5688 2.12883L37.4941 2.06646L37.4651 2.04239C37.4651 2.04239 37.4638 2.0413 35 5.01398ZM32.7501 12.1539C33.5918 11.379 34.35 10.6963 35 10.1194C35.65 10.6963 36.4082 11.379 37.2499 12.1539C40.1119 14.7884 43.9153 18.4657 47.7064 22.6533C51.5111 26.8559 55.2251 31.4872 57.9671 36.03C60.7611 40.659 62.2771 44.7612 62.2771 48.0067C62.2771 63.0686 50.0647 75.2786 35 75.2786C19.9353 75.2786 7.72285 63.0686 7.72285 48.0067C7.72285 44.7612 9.23894 40.659 12.0329 36.03C14.7749 31.4872 18.4889 26.8559 22.2936 22.6533C26.0847 18.4657 29.8881 14.7884 32.7501 12.1539Z" fill="url(#paint2_linear_141_29)"/>
<defs>
<linearGradient id="paint0_linear_141_29" x1="35" y1="0" x2="35" y2="83" gradientUnits="userSpaceOnUse">
<stop stop-color="#46A63D"/>
<stop offset="1" stop-color="#2A99FF"/>
</linearGradient>
<linearGradient id="paint1_linear_141_29" x1="35" y1="0" x2="35" y2="83" gradientUnits="userSpaceOnUse">
<stop stop-color="#46A63D"/>
<stop offset="1" stop-color="#2A99FF"/>
</linearGradient>
<linearGradient id="paint2_linear_141_29" x1="35" y1="0" x2="35" y2="83" gradientUnits="userSpaceOnUse">
<stop stop-color="#46A63D"/>
<stop offset="1" stop-color="#2A99FF"/>
</linearGradient>
</defs>
</svg>
