<svg width="66" height="83" viewBox="0 0 66 83" fill="none" xmlns="http://www.w3.org/2000/svg">
<path d="M36.0856 41.5001C36.0856 39.796 34.7042 38.4146 33.0001 38.4146C31.296 38.4146 29.9146 39.796 29.9146 41.5001V46.9512H24.4635C22.7594 46.9512 21.378 48.3326 21.378 50.0367C21.378 51.7408 22.7594 53.1222 24.4635 53.1222H29.9146V58.5733C29.9146 60.2773 31.296 61.6588 33.0001 61.6588C34.7042 61.6588 36.0856 60.2773 36.0856 58.5733V53.1222H41.5366C43.2407 53.1222 44.6222 51.7408 44.6222 50.0367C44.6222 48.3326 43.2407 46.9512 41.5366 46.9512H36.0856V41.5001Z" fill="url(#paint0_linear_153_31)"/>
<path fill-rule="evenodd" clip-rule="evenodd" d="M17.5268 8.53638C18.0567 6.61254 19.078 4.8398 20.5137 3.40403C22.6933 1.22447 25.6494 0 28.7318 0H37.2684C40.3507 0 43.3069 1.22447 45.4864 3.40403C46.9222 4.8398 47.9435 6.61254 48.4734 8.53638H54.3415C57.4238 8.53638 60.38 9.76084 62.5595 11.9404C64.7391 14.12 65.9636 17.0761 65.9636 20.1585V71.3779C65.9636 74.4603 64.7391 77.4164 62.5595 79.596C60.38 81.7755 57.4238 83 54.3415 83H11.6586C8.57621 83 5.62009 81.7755 3.44053 79.596C1.26097 77.4164 0.036499 74.4603 0.036499 71.3779V20.1585C0.036499 17.0761 1.26096 14.12 3.44053 11.9404C5.62009 9.76084 8.57622 8.53638 11.6586 8.53638H17.5268ZM24.8773 7.7676C25.8996 6.74533 27.2861 6.17102 28.7318 6.17102H37.2684C38.7141 6.17102 40.1006 6.74533 41.1228 7.7676C42.1419 8.78661 42.7158 10.1675 42.7194 11.6082C42.7194 11.6128 42.7194 11.6173 42.7194 11.6219C42.7194 11.6265 42.7194 11.6311 42.7194 11.6357C42.7158 13.0765 42.1419 14.4575 41.1228 15.4766C40.1006 16.4988 38.7141 17.0732 37.2684 17.0732H28.7318C27.2861 17.0732 25.8996 16.4988 24.8773 15.4766C23.855 14.4543 23.2807 13.0678 23.2807 11.6221C23.2807 10.1764 23.855 8.78987 24.8773 7.7676ZM48.4735 14.7074C47.9436 16.6314 46.9223 18.4043 45.4864 19.8401C43.3069 22.0197 40.3507 23.2442 37.2684 23.2442H28.7318C25.6494 23.2442 22.6933 22.0197 20.5137 19.8401C19.0779 18.4043 18.0565 16.6314 17.5267 14.7074H11.6586C10.2129 14.7074 8.82637 15.2817 7.8041 16.304C6.78183 17.3262 6.20752 18.7127 6.20752 20.1585V71.3779C6.20752 72.8236 6.78182 74.2101 7.8041 75.2324C8.82637 76.2547 10.2129 76.829 11.6586 76.829H54.3415C55.7872 76.829 57.1737 76.2547 58.196 75.2324C59.2182 74.2101 59.7925 72.8236 59.7925 71.3779V20.1585C59.7925 18.7127 59.2182 17.3262 58.196 16.304C57.1737 15.2817 55.7872 14.7074 54.3415 14.7074H48.4735Z" fill="url(#paint1_linear_153_31)"/>
<defs>
<linearGradient id="paint0_linear_153_31" x1="33" y1="0" x2="33" y2="83" gradientUnits="userSpaceOnUse">
<stop stop-color="#46A63D"/>
<stop offset="1" stop-color="#2A99FF"/>
</linearGradient>
<linearGradient id="paint1_linear_153_31" x1="33" y1="0" x2="33" y2="83" gradientUnits="userSpaceOnUse">
<stop stop-color="#46A63D"/>
<stop offset="1" stop-color="#2A99FF"/>
</linearGradient>
</defs>
</svg>
