<svg width="69" height="62" viewBox="0 0 69 62" fill="none" xmlns="http://www.w3.org/2000/svg">
<path d="M9.77686 50.8298C11.3697 52.7879 13.2192 54.5264 15.2744 56.0014C23.2595 36.39 50.7103 15.3246 68.8698 16.9498C48.1488 12.7099 18.111 32.1987 9.77686 50.8298Z" fill="url(#paint0_radial_228_41)"/>
<path d="M31.7484 61.0296C27.1755 61.0296 22.6467 59.9061 18.6333 57.7792C25.1666 43.3024 42.1979 26.6433 56.811 20.4314C66.1485 39.014 52.5826 61.0296 31.7484 61.0296Z" fill="url(#paint1_linear_228_41)"/>
<path d="M3.77048 34.8203C7.41393 28.0998 15.7527 20.08 28.0841 18.4432L29.6977 18.2698L28.2205 18.9542C13.071 25.1753 7.66593 32.6541 4.3993 39.1619C4.97726 41.7304 5.91355 44.2017 7.18969 46.5113C15.4037 32.8899 36.2171 19.3264 54.0414 15.9927C37.2575 -6.06687 1.91869 7.29786 3.77048 34.8203Z" fill="url(#paint2_linear_228_41)"/>
<defs>
<radialGradient id="paint0_radial_228_41" cx="0" cy="0" r="1" gradientUnits="userSpaceOnUse" gradientTransform="translate(32.8573 30.0089) scale(25.7269)">
<stop stop-color="#A2E9FF"/>
<stop offset="1" stop-color="#0082C6"/>
</radialGradient>
<linearGradient id="paint1_linear_228_41" x1="67.8268" y1="29.1389" x2="18.4568" y2="57.56" gradientUnits="userSpaceOnUse">
<stop offset="0.0275" stop-color="white"/>
<stop offset="0.3352" stop-color="#87D940"/>
<stop offset="1" stop-color="#0C783A"/>
</linearGradient>
<linearGradient id="paint2_linear_228_41" x1="45.7151" y1="41.9194" x2="2.49097" y2="9.36786" gradientUnits="userSpaceOnUse">
<stop offset="0.0275" stop-color="white"/>
<stop offset="0.3352" stop-color="#16CBEB"/>
<stop offset="1" stop-color="#1E5AA0"/>
</linearGradient>
</defs>
</svg>
