<svg width="83" height="83" viewBox="0 0 83 83" fill="none" xmlns="http://www.w3.org/2000/svg">
<path d="M42.0491 0.000293487C61.3782 -0.0773337 79.2713 15.254 82.1823 34.3891C82.2858 35.085 82.3892 35.6487 82.486 36.1763C82.7888 37.8265 83.0268 39.1236 82.9974 43.0058C82.454 50.3803 80.3193 57.1339 76.5543 63.3829C75.7393 64.7802 74.4972 65.6341 73.0223 65.0519C72.052 64.6637 70.9652 63.577 70.6935 62.6066C70.4606 61.7915 71.0816 60.5495 71.5862 59.618C75.3511 52.942 77.0201 45.878 76.3991 38.2317C75.1959 23.599 64.1728 10.6352 49.773 7.33606C47.5924 6.81533 45.3027 6.59479 43.0411 6.37696C42.6055 6.33501 42.171 6.29316 41.7386 6.24928C39.565 6.0164 38.2841 4.92962 38.323 3.10538C38.3618 1.24233 39.8367 0.000293487 42.0491 0.000293487Z" fill="url(#paint0_linear_142_11)"/>
<path d="M60.175 71.1844C60.0586 71.2426 59.9518 71.3105 59.8451 71.3785C59.7384 71.4464 59.6316 71.5143 59.5152 71.5725C51.9854 75.9585 43.9121 77.5498 35.2955 75.9973C9.83379 71.5725 -2.27605 41.7249 12.9001 20.8044C15.8499 16.7289 19.576 13.4686 23.8843 10.8681C26.2519 9.43198 26.6013 6.90909 24.6994 5.47299C23.3409 4.46384 21.9436 4.77435 20.5463 5.58943C4.78802 14.9047 -3.05233 32.8754 1.10073 50.8461C5.64192 70.4081 23.4185 83.5271 42.8642 82.9837C43.7053 82.8563 44.5464 82.7414 45.3862 82.6267C47.1039 82.3921 48.8159 82.1582 50.5104 81.8193C55.1681 80.849 59.5152 79.0247 63.513 76.463C65.4537 75.221 65.9971 73.552 64.9491 71.9219C63.9788 70.2917 62.1545 70.0588 60.175 71.1844Z" fill="url(#paint1_linear_142_11)"/>
<path fill-rule="evenodd" clip-rule="evenodd" d="M22.914 42.4236C22.8835 45.5307 25.1004 45.5776 27.238 45.6229C27.8239 45.6353 28.404 45.6475 28.9301 45.7227V49.5652C28.4563 49.6097 27.9473 49.6145 27.4331 49.6195C25.2512 49.6404 22.9768 49.6623 22.914 52.7091C22.8543 55.8403 25.0171 55.8555 27.1491 55.8705C27.792 55.8751 28.4322 55.8796 29.0077 55.9695C29.0077 56.5347 29.0033 57.0866 28.9989 57.6296C28.9903 58.6901 28.982 59.7168 29.0077 60.7436C29.0465 62.8007 30.3662 64.2368 32.1516 64.198C33.937 64.1592 35.1791 62.7231 35.2179 60.6659C35.2434 59.6713 35.2354 58.6599 35.2269 57.5877C35.2224 57.0281 35.2179 56.452 35.2179 55.8531H37.5079C38.7097 55.8531 39.9158 55.8573 41.1233 55.8617C43.5427 55.8703 45.9678 55.8789 48.3757 55.8531C50.4328 55.8142 51.7137 54.6498 51.7913 52.9032C51.8689 51.1566 50.4716 49.7205 48.4145 49.6429C46.4338 49.5846 44.4313 49.5919 42.4398 49.5992C41.7775 49.6016 41.1163 49.6041 40.4577 49.6041H35.2567V45.5675C36.1884 45.5675 37.1024 45.5763 38.0032 45.5851L38.0036 45.5851C39.7668 45.6022 41.4792 45.6188 43.1747 45.5675C43.7331 45.5505 44.2971 45.5428 44.863 45.5351C46.8929 45.5074 48.9476 45.4793 50.8598 45.0241C56.8371 43.6268 60.6796 37.7271 59.981 31.711C59.2823 25.6173 54.353 20.9984 48.1428 20.8044C44.4555 20.6879 40.7682 20.7268 37.0809 20.7656C31.8023 20.8044 29.0465 23.6378 29.0077 28.9552V39.2796C28.4134 39.3697 27.7669 39.3783 27.1244 39.3868C24.9973 39.415 22.914 39.4426 22.914 42.4236ZM36.8092 27.0146C38.2356 27.0291 39.662 27.0273 41.0884 27.0255C43.4658 27.0224 45.8431 27.0194 48.2204 27.0922C51.1315 27.1698 53.4991 29.5763 53.8096 32.5261C54.1201 35.5147 52.1794 38.4257 49.3072 39.0856C47.9876 39.3961 46.6291 39.3961 45.2706 39.3961C42.1267 39.4349 38.944 39.3961 35.8001 39.3573C35.7177 39.3573 35.6354 39.3185 35.4707 39.2408C35.4025 39.2087 35.3202 39.1699 35.2179 39.1244C35.2179 37.9427 35.2222 36.7697 35.2266 35.601C35.2352 33.2767 35.2437 30.9692 35.2179 28.6447C35.1791 27.4803 35.6448 26.9757 36.8092 27.0146Z" fill="url(#paint2_linear_142_11)"/>
<defs>
<linearGradient id="paint0_linear_142_11" x1="41.4999" y1="0" x2="41.4999" y2="83" gradientUnits="userSpaceOnUse">
<stop stop-color="#46A63D"/>
<stop offset="1" stop-color="#2A99FF"/>
</linearGradient>
<linearGradient id="paint1_linear_142_11" x1="41.4999" y1="0" x2="41.4999" y2="83" gradientUnits="userSpaceOnUse">
<stop stop-color="#46A63D"/>
<stop offset="1" stop-color="#2A99FF"/>
</linearGradient>
<linearGradient id="paint2_linear_142_11" x1="41.4999" y1="0" x2="41.4999" y2="83" gradientUnits="userSpaceOnUse">
<stop stop-color="#46A63D"/>
<stop offset="1" stop-color="#2A99FF"/>
</linearGradient>
</defs>
</svg>
