<svg width="130" height="130" viewBox="0 0 130 130" fill="none" xmlns="http://www.w3.org/2000/svg">
<circle cx="65.5" cy="65.5" r="37.5" fill="white"/>
<path d="M106.067 12.4862C104.189 11.4361 101.835 12.1432 100.808 14.0655C99.7824 15.9878 100.473 18.3974 102.351 19.4475C103.195 19.9189 104.681 21.0887 106.201 22.9778C107.755 24.9103 108.946 27.1803 109.637 29.8204C110.64 33.65 110.335 37.3073 109.216 40.5624C108.847 41.6377 108.498 42.3656 108.321 42.6639L108.078 43.1424C107.314 44.9327 107.941 47.0699 109.617 48.1137C111.446 49.2524 113.83 48.6586 114.942 46.7873C115.385 46.0427 115.967 44.8255 116.527 43.1945C118.129 38.532 118.567 33.2832 117.123 27.7677C116.133 23.9837 114.416 20.7101 112.184 17.9356C109.966 15.1795 107.716 13.4079 106.067 12.4862Z" fill="#2A99FF"/>
<path d="M74.7144 80.0701C76.9323 79.5647 79.2117 80.6838 79.8059 82.5699C80.3509 84.299 79.2904 86.072 77.4013 86.7447L76.8663 86.9002L66.1577 89.3402C63.9398 89.8456 61.6599 88.726 61.0656 86.8399C60.5213 85.1113 61.5817 83.3383 63.4709 82.6651L64.0058 82.5101L74.7144 80.0701Z" fill="#2A99FF"/>
<path fill-rule="evenodd" clip-rule="evenodd" d="M81.3015 31.6446C79.6041 25.3302 73.0935 21.5845 66.7611 23.2794L42.5378 29.7629C36.21 31.4566 32.4557 37.9425 34.1505 44.2529L48.6797 98.3525C50.375 104.665 56.8815 108.413 63.2128 106.723L87.454 100.253C93.7874 98.5634 97.5462 92.0728 95.8488 85.7584L81.3015 31.6446ZM68.8125 30.8987C70.9229 30.3337 73.0935 31.5823 73.6595 33.6871L88.2067 87.8011C88.7727 89.9054 87.5194 92.0691 85.4085 92.6324L61.1667 99.102C59.0563 99.6653 56.8878 98.4162 56.3224 96.3119L41.7933 42.2122C41.2284 40.1088 42.4798 37.9468 44.5891 37.3823L68.8125 30.8987Z" fill="#2A99FF"/>
<path d="M94.3052 24.4653C95.5594 22.6887 97.9109 22.3457 99.5574 23.6991C100.224 24.2471 101.087 25.1295 101.943 26.3485C102.886 27.6906 103.613 29.18 104.022 30.8291C104.607 33.1824 104.486 35.5317 103.958 37.7506L103.699 38.7087C103.614 38.9873 103.532 39.2238 103.458 39.4144C102.658 41.4745 100.463 42.4452 98.5535 41.5825C96.8036 40.7918 95.9017 38.7349 96.3794 36.8108L96.6292 36.0106C96.6502 35.9332 96.6737 35.8415 96.6987 35.7373C96.933 34.7521 96.985 33.7389 96.7826 32.9228C96.6457 32.3726 96.3644 31.7957 95.9696 31.2339C95.6723 30.8108 95.379 30.4809 95.1796 30.2839L95.0152 30.1328C93.3688 28.7793 93.0509 26.2419 94.3052 24.4653Z" fill="#2A99FF"/>
<path d="M14.8195 83.284C15.8933 81.3941 18.2713 80.7466 20.1311 81.8377C21.8359 82.8382 22.5134 84.952 21.7875 86.7534L21.2941 87.7708C21.1348 88.1332 20.9382 88.6348 20.7341 89.2586C19.6689 92.5146 19.4009 96.1985 20.4232 100.076C21.1187 102.714 22.3067 105.003 23.8533 106.97C25.1885 108.667 26.4981 109.811 27.3751 110.405L27.7233 110.627C29.5826 111.718 30.2188 114.136 29.1442 116.025C28.0697 117.914 25.6913 118.561 23.832 117.469C22.2029 116.512 19.9741 114.695 17.7789 111.904C15.588 109.119 13.8975 105.86 12.9115 102.121C11.4605 96.6179 11.8406 91.3935 13.3545 86.7655C13.8712 85.186 14.4091 84.0068 14.8195 83.284Z" fill="#2A99FF"/>
<path d="M26.525 90.5992C27.3184 88.5363 29.5134 87.5566 31.4277 88.4117C33.1825 89.1957 34.0924 91.249 33.6207 93.1749L33.3749 93.9713C33.3542 94.0479 33.331 94.139 33.3067 94.242C33.0743 95.2282 33.0242 96.2451 33.2289 97.0684C33.3667 97.6233 33.6488 98.204 34.0432 98.769C34.3406 99.1955 34.6343 99.5282 34.8338 99.7272L34.9987 99.8803C36.6405 101.243 36.9463 103.782 35.6819 105.552C34.4174 107.321 32.0615 107.651 30.4198 106.288C29.7563 105.737 28.8971 104.851 28.0448 103.629C27.11 102.289 26.3886 100.803 25.9805 99.1621C25.396 96.8107 25.5117 94.4647 26.0335 92.2508L26.2876 91.3002C26.3713 91.0236 26.4522 90.7885 26.525 90.5992Z" fill="#2A99FF"/>
</svg>
