<svg width="51" height="51" viewBox="0 0 51 51" fill="none" xmlns="http://www.w3.org/2000/svg">
<rect x="18" y="15" width="20" height="20" fill="white"/>
<path d="M20.1875 19.8156V31.1844C20.1875 31.999 20.5594 32.6187 21.3031 33.0438C22.0469 33.4688 22.7729 33.4333 23.4813 32.9375L32.3 27.3063C32.9729 26.8813 33.3094 26.2792 33.3094 25.5C33.3094 24.7208 32.9729 24.1187 32.3 23.6937L23.4813 18.0625C22.7729 17.5667 22.0469 17.5312 21.3031 17.9562C20.5594 18.3812 20.1875 19.001 20.1875 19.8156ZM25.5 46.75C22.5604 46.75 19.7979 46.1918 17.2125 45.0755C14.6271 43.9592 12.3781 42.4455 10.4656 40.5344C8.55313 38.6219 7.03942 36.3729 5.9245 33.7875C4.80958 31.2021 4.25142 28.4396 4.25 25.5C4.25 22.5604 4.80817 19.7979 5.9245 17.2125C7.04083 14.6271 8.55454 12.3781 10.4656 10.4656C12.3781 8.55313 14.6271 7.03942 17.2125 5.9245C19.7979 4.80958 22.5604 4.25142 25.5 4.25C28.4396 4.25 31.2021 4.80817 33.7875 5.9245C36.3729 7.04083 38.6219 8.55454 40.5344 10.4656C42.4469 12.3781 43.9613 14.6271 45.0776 17.2125C46.194 19.7979 46.7514 22.5604 46.75 25.5C46.75 28.4396 46.1918 31.2021 45.0755 33.7875C43.9592 36.3729 42.4455 38.6219 40.5344 40.5344C38.6219 42.4469 36.3729 43.9613 33.7875 45.0776C31.2021 46.194 28.4396 46.7514 25.5 46.75Z" fill="#2A99FF"/>
</svg>
