<svg width="544" height="371" viewBox="0 0 544 371" fill="none" xmlns="http://www.w3.org/2000/svg">
<path d="M37 219C37 214.582 33.4183 211 29 211H27C22.5817 211 19 214.582 19 219V230H8C3.58167 230 0 233.582 0 238V240C0 244.418 3.58167 248 8 248H19V259C19 263.418 22.5817 267 27 267H29C33.4183 267 37 263.418 37 259V248H48C52.4183 248 56 244.418 56 240V238C56 233.582 52.4183 230 48 230H37V219Z" fill="#2A99FF" fill-opacity="0.1"/>
<path d="M312.607 182.429C312.607 177.221 308.386 173 303.179 173H300.821C295.614 173 291.393 177.221 291.393 182.429V195.393H278.429C273.221 195.393 269 199.614 269 204.821V207.179C269 212.386 273.221 216.607 278.429 216.607H291.393V229.571C291.393 234.779 295.614 239 300.821 239H303.179C308.386 239 312.607 234.779 312.607 229.571V216.607H325.571C330.779 216.607 335 212.386 335 207.179V204.821C335 199.614 330.779 195.393 325.571 195.393H312.607V182.429Z" fill="#2A99FF" fill-opacity="0.1"/>
<path d="M452.089 146.857C452.089 143.622 449.467 141 446.232 141H444.768C441.533 141 438.911 143.622 438.911 146.857V154.911H430.857C427.622 154.911 425 157.533 425 160.768V162.232C425 165.467 427.622 168.089 430.857 168.089H438.911V176.143C438.911 179.378 441.533 182 444.768 182H446.232C449.467 182 452.089 179.378 452.089 176.143V168.089H460.143C463.378 168.089 466 165.467 466 162.232V160.768C466 157.533 463.378 154.911 460.143 154.911H452.089V146.857Z" fill="#2A99FF" fill-opacity="0.1"/>
<path opacity="0.1" d="M228.393 69.5714C228.393 65.9422 225.451 63 221.821 63H220.179C216.549 63 213.607 65.9422 213.607 69.5714V78.6071H204.571C200.942 78.6071 198 81.5493 198 85.1786V86.8214C198 90.4507 200.942 93.3929 204.571 93.3929H213.607V102.429C213.607 106.058 216.549 109 220.179 109H221.821C225.451 109 228.393 106.058 228.393 102.429V93.3929H237.429C241.058 93.3929 244 90.4507 244 86.8214V85.1786C244 81.5493 241.058 78.6071 237.429 78.6071H228.393V69.5714Z" fill="#2A99FF"/>
<path opacity="0.1" d="M413.804 4.71429C413.804 2.1107 411.693 0 409.089 0H407.911C405.307 0 403.196 2.1107 403.196 4.71429V11.1964H396.714C394.111 11.1964 392 13.3071 392 15.9107V17.0893C392 19.6929 394.111 21.8036 396.714 21.8036H403.196V28.2857C403.196 30.8893 405.307 33 407.911 33H409.089C411.693 33 413.804 30.8893 413.804 28.2857V21.8036H420.286C422.889 21.8036 425 19.6929 425 17.0893V15.9107C425 13.3071 422.889 11.1964 420.286 11.1964H413.804V4.71429Z" fill="#2A99FF"/>
<path d="M521.607 314.429C521.607 309.221 517.386 305 512.179 305H509.821C504.614 305 500.393 309.221 500.393 314.429V327.393H487.429C482.221 327.393 478 331.614 478 336.821V339.179C478 344.386 482.221 348.607 487.429 348.607H500.393V361.571C500.393 366.779 504.614 371 509.821 371H512.179C517.386 371 521.607 366.779 521.607 361.571V348.607H534.571C539.779 348.607 544 344.386 544 339.179V336.821C544 331.614 539.779 327.393 534.571 327.393H521.607V314.429Z" fill="#2A99FF" fill-opacity="0.1"/>
</svg>
