<svg width="1920" height="736" viewBox="0 0 1920 736" fill="none" xmlns="http://www.w3.org/2000/svg">
<g clip-path="url(#clip0_209_141)">
<path style="mix-blend-mode:screen" d="M1985.04 380.387V419.982H2024.49V451.519H1984.9V491.114H1953.37V451.519H1913.83V419.982H1953.37V380.387H1984.9M1988.28 377.007H1949.99V416.602H1910.59V454.9H1950.13V494.448H1988.42V454.9H2028.01V416.602H1988.42V377.007H1988.28Z" fill="url(#paint0_linear_209_141)"/>
<path style="mix-blend-mode:screen" d="M1817.43 471.202C1817.44 472.568 1817.05 473.907 1816.29 475.048C1815.54 476.188 1814.47 477.08 1813.21 477.609C1811.95 478.139 1810.56 478.282 1809.22 478.021C1807.88 477.76 1806.64 477.106 1805.67 476.143C1804.71 475.18 1804.04 473.951 1803.77 472.611C1803.5 471.271 1803.64 469.882 1804.16 468.618C1804.68 467.354 1805.56 466.274 1806.7 465.514C1807.83 464.754 1809.17 464.348 1810.54 464.348C1812.36 464.348 1814.11 465.068 1815.4 466.352C1816.69 467.636 1817.42 469.38 1817.43 471.202Z" fill="url(#paint1_linear_209_141)"/>
<g style="mix-blend-mode:screen">
<path d="M1882.35 194.223H1810.26V122.119H1740.53V194.223H1668.44V263.966H1740.53V336.07H1810.26V263.966H1882.35V194.223Z" fill="url(#paint2_linear_209_141)"/>
</g>
<g style="mix-blend-mode:screen">
<path d="M544.786 324.168H498.254V277.627H453.204V324.168H406.673V369.181H453.204V415.722H498.254V369.181H544.786V324.168Z" fill="url(#paint3_linear_209_141)"/>
</g>
<path style="mix-blend-mode:screen" d="M1561.49 136.752V180.654H1605.38V215.618H1561.49V259.519H1526.53V215.618H1482.78V180.654H1526.67V136.752H1561.49ZM1565.24 133.001H1522.78V176.903H1478.89V219.369H1522.78V263.363H1565.24V219.369H1609.13V176.903H1565.24V133.001Z" fill="url(#paint4_linear_209_141)"/>
<path style="mix-blend-mode:screen" d="M296.479 188.434C296.479 189.661 296.115 190.861 295.433 191.882C294.751 192.902 293.782 193.697 292.649 194.167C291.515 194.637 290.267 194.76 289.064 194.52C287.86 194.281 286.755 193.69 285.887 192.822C285.02 191.954 284.429 190.848 284.189 189.645C283.95 188.441 284.073 187.193 284.542 186.059C285.012 184.925 285.807 183.956 286.827 183.274C287.848 182.592 289.047 182.229 290.274 182.229C291.92 182.229 293.498 182.882 294.661 184.046C295.825 185.21 296.479 186.788 296.479 188.434Z" fill="url(#paint5_linear_209_141)"/>
<path style="mix-blend-mode:screen" d="M479.688 477.129V524.457H527.007V562.153H479.688V609.482H442V562.153H394.727V524.457H442.046V477.129H479.734M483.762 473.1H437.972V520.428H390.653V566.228H437.925V613.511H483.716V566.228H531.035V520.428H483.716V473.1H483.762Z" fill="url(#paint6_linear_209_141)"/>
<path style="mix-blend-mode:screen" d="M1921.47 536.822V582.298H1966.94V618.512H1921.47V663.988H1885.26V618.512H1839.8V582.298H1885.26V536.822H1921.47ZM1925.36 532.932H1881.38V578.269H1835.91V622.263H1881.38V667.74H1925.36V622.263H1970.78V578.269H1925.36V532.793V532.932Z" fill="url(#paint7_linear_209_141)"/>
<g style="mix-blend-mode:screen">
<path d="M90.536 235.485H-20.8156V124.11H-128.648V235.485H-240V343.294H-128.648V454.715H-20.8156V343.294H90.536V235.485Z" fill="url(#paint8_linear_209_141)"/>
</g>
<path style="mix-blend-mode:screen" d="M180.404 319.213C180.404 321.539 179.715 323.813 178.422 325.748C177.13 327.682 175.293 329.19 173.145 330.08C170.996 330.97 168.631 331.203 166.35 330.75C164.069 330.296 161.973 329.175 160.328 327.53C158.684 325.885 157.564 323.789 157.11 321.508C156.656 319.226 156.889 316.861 157.779 314.711C158.669 312.562 160.177 310.725 162.111 309.433C164.044 308.14 166.318 307.45 168.644 307.45C170.188 307.45 171.718 307.754 173.145 308.346C174.571 308.937 175.868 309.803 176.96 310.895C178.052 311.988 178.918 313.284 179.509 314.711C180.1 316.139 180.404 317.668 180.404 319.213Z" fill="url(#paint9_linear_209_141)"/>
<path style="mix-blend-mode:screen" d="M-11.1852 415.722V512.973H86.0449V590.634H-11.1852V687.884H-88.8304V590.634H-186.06V513.158H-88.8304V415.908H-11.1852M-2.8512 407.618H-97.1181V504.869H-194.348V599.155H-97.1181V696.405H-2.8512V599.155H94.3789V504.869H-2.8512V407.618Z" fill="url(#paint10_linear_209_141)"/>
<path style="mix-blend-mode:screen" d="M936.345 444.064H846.569V354.27H759.664V444.064H669.935V530.941H759.664V620.736H846.569V530.941H936.345V444.064Z" fill="url(#paint11_linear_209_141)"/>
<path style="mix-blend-mode:screen" d="M1576.07 583.271C1582.01 583.271 1586.81 578.461 1586.81 572.527C1586.81 566.593 1582.01 561.783 1576.07 561.783C1570.14 561.783 1565.33 566.593 1565.33 572.527C1565.33 578.461 1570.14 583.271 1576.07 583.271Z" fill="url(#paint12_linear_209_141)"/>
<g style="mix-blend-mode:screen">
<path d="M1583.99 358.298H1540.7V314.998H1498.8V358.298H1455.51V400.208H1498.8V443.507H1540.7V400.208H1583.99V358.298Z" fill="url(#paint13_linear_209_141)"/>
</g>
<path style="mix-blend-mode:screen" d="M274.023 382.935V427.439H318.517V462.912H274.023V507.416H238.557V462.912H194.063V427.439H238.557V382.935H274.023ZM277.82 379.138H234.761V423.641H190.266V466.709H234.761V511.213H277.82V466.709H322.314V423.641H277.82V379.138Z" fill="url(#paint14_linear_209_141)"/>
<path style="mix-blend-mode:screen" d="M968.339 291.149C968.339 294.941 967.214 298.647 965.108 301.8C963.002 304.953 960.008 307.41 956.506 308.862C953.003 310.313 949.149 310.692 945.431 309.953C941.712 309.213 938.297 307.387 935.616 304.706C932.936 302.024 931.11 298.608 930.37 294.889C929.631 291.17 930.01 287.315 931.461 283.812C932.912 280.309 935.369 277.314 938.521 275.208C941.673 273.101 945.379 271.977 949.17 271.977C954.254 271.977 959.13 273.996 962.724 277.592C966.319 281.187 968.339 286.064 968.339 291.149Z" fill="url(#paint15_linear_209_141)"/>
<path style="mix-blend-mode:screen" d="M267.402 609.76C267.402 613.552 266.278 617.259 264.172 620.412C262.065 623.564 259.072 626.022 255.569 627.473C252.067 628.924 248.213 629.304 244.494 628.564C240.776 627.824 237.361 625.998 234.68 623.317C231.999 620.636 230.174 617.219 229.434 613.5C228.694 609.781 229.074 605.926 230.525 602.423C231.976 598.92 234.432 595.926 237.585 593.819C240.737 591.712 244.443 590.588 248.234 590.588C253.318 590.588 258.193 592.608 261.788 596.203C265.383 599.799 267.402 604.675 267.402 609.76Z" fill="url(#paint16_linear_209_141)"/>
<path style="mix-blend-mode:screen" d="M665.582 293.649V389.927H761.84V466.662H665.582V562.94H588.863V466.662H492.606V389.927H588.863V293.649H665.582ZM673.778 285.406H580.622V381.684H484.364V474.859H580.622V571.137H673.778V474.859H770.035V381.684H673.778V285.406Z" fill="url(#paint17_linear_209_141)"/>
<path style="mix-blend-mode:screen" d="M1305.36 14.588V124.018H1414.76V211.219H1305.36V320.649H1218.17V211.219H1108.77V124.018H1218.17V14.588H1305.36ZM1314.62 5.32602H1208.82V114.663H1099.41V220.574H1208.82V330.003H1314.71V220.574H1424.12V114.663H1314.71V5.2334L1314.62 5.32602Z" fill="url(#paint18_linear_209_141)"/>
<path style="mix-blend-mode:screen" d="M1192.85 529.597H1156.36V493.105H1121.08V529.597H1084.64V564.886H1121.08V601.331H1156.36V564.886H1192.85V529.597Z" fill="url(#paint19_linear_209_141)"/>
<path style="mix-blend-mode:screen" d="M1134.37 179.589C1134.37 180.798 1134.01 181.98 1133.34 182.986C1132.67 183.991 1131.71 184.774 1130.6 185.237C1129.48 185.7 1128.25 185.821 1127.07 185.585C1125.88 185.349 1124.79 184.767 1123.94 183.912C1123.08 183.057 1122.5 181.968 1122.26 180.782C1122.03 179.596 1122.15 178.367 1122.61 177.25C1123.07 176.133 1123.86 175.178 1124.86 174.507C1125.87 173.835 1127.05 173.477 1128.26 173.477C1129.88 173.477 1131.43 174.121 1132.58 175.267C1133.73 176.413 1134.37 177.968 1134.37 179.589Z" fill="url(#paint20_linear_209_141)"/>
<path style="mix-blend-mode:screen" d="M2145.24 10.5123V133.696H2268.49V231.965H2145.24V355.242H2046.99V232.058H1923.74V133.696H2046.99V10.5123H2145.24ZM2155.75 0H2036.48V123.276H1913.37V242.57H2036.62V365.893H2155.89V242.57H2279.14V123.276H2155.75V0Z" fill="url(#paint21_linear_209_141)"/>
<path style="mix-blend-mode:screen" d="M1022.83 435.635V477.592H1064.78V511.027H1022.83V552.984H989.405V511.027H947.457V477.592H989.405V435.635H1022.83ZM1026.44 432.069H985.84V474.026H943.892V514.64H985.84V556.596H1026.44V514.64H1068.39V474.026H1026.44V432.069Z" fill="url(#paint22_linear_209_141)"/>
<path style="mix-blend-mode:screen" d="M833.189 225.343C833.189 226.809 832.754 228.241 831.94 229.46C831.126 230.678 829.969 231.628 828.616 232.189C827.262 232.749 825.772 232.896 824.335 232.61C822.898 232.324 821.578 231.619 820.542 230.582C819.506 229.546 818.801 228.226 818.515 226.789C818.229 225.351 818.376 223.862 818.937 222.508C819.497 221.154 820.447 219.996 821.665 219.182C822.883 218.368 824.316 217.934 825.781 217.934C827.745 217.934 829.63 218.714 831.019 220.104C832.408 221.493 833.189 223.378 833.189 225.343Z" fill="url(#paint23_linear_209_141)"/>
<path style="mix-blend-mode:screen" d="M1774.84 527.931H1720.48V473.563H1667.89V527.931H1613.53V580.539H1667.89V634.906H1720.48V580.539H1774.84V527.931Z" fill="url(#paint24_linear_209_141)"/>
<path style="mix-blend-mode:screen" d="M662.712 117.812V168.011H712.901V208.023H662.712V258.223H622.755V208.023H572.566V168.011H622.755V117.812H662.712ZM667.018 113.505H618.449V163.705H568.26V212.422H618.449V262.622H667.018V212.422H717.207V163.705H667.018V113.505Z" fill="url(#paint25_linear_209_141)"/>
<g style="mix-blend-mode:screen">
<path d="M1520.7 472.452H1386.75V338.478H1257.16V472.452H1123.26V602.072H1257.16V736H1386.75V602.072H1520.7V472.452Z" fill="url(#paint26_linear_209_141)"/>
</g>
</g>
<defs>
<linearGradient id="paint0_linear_209_141" x1="2028.01" y1="435.728" x2="1910.59" y2="435.728" gradientUnits="userSpaceOnUse">
<stop offset="0.14" stop-color="#E6E6E6"/>
<stop offset="0.22" stop-color="#C3C4C5"/>
<stop offset="0.38" stop-color="#898A8C"/>
<stop offset="0.53" stop-color="#585A5D"/>
<stop offset="0.67" stop-color="#323438"/>
<stop offset="0.8" stop-color="#16191E"/>
<stop offset="0.91" stop-color="#06090E"/>
<stop offset="1" stop-color="#000308"/>
</linearGradient>
<linearGradient id="paint1_linear_209_141" x1="1817.43" y1="471.202" x2="1803.64" y2="471.202" gradientUnits="userSpaceOnUse">
<stop offset="0.14" stop-color="#E6E6E6"/>
<stop offset="0.22" stop-color="#C3C4C5"/>
<stop offset="0.38" stop-color="#898A8C"/>
<stop offset="0.53" stop-color="#585A5D"/>
<stop offset="0.67" stop-color="#323438"/>
<stop offset="0.8" stop-color="#16191E"/>
<stop offset="0.91" stop-color="#06090E"/>
<stop offset="1" stop-color="#000308"/>
</linearGradient>
<linearGradient id="paint2_linear_209_141" x1="1882.35" y1="229.095" x2="1668.44" y2="229.095" gradientUnits="userSpaceOnUse">
<stop offset="0.14" stop-color="#E6E6E6"/>
<stop offset="0.22" stop-color="#C3C4C5"/>
<stop offset="0.38" stop-color="#898A8C"/>
<stop offset="0.53" stop-color="#585A5D"/>
<stop offset="0.67" stop-color="#323438"/>
<stop offset="0.8" stop-color="#16191E"/>
<stop offset="0.91" stop-color="#06090E"/>
<stop offset="1" stop-color="#000308"/>
</linearGradient>
<linearGradient id="paint3_linear_209_141" x1="544.786" y1="346.675" x2="406.673" y2="346.675" gradientUnits="userSpaceOnUse">
<stop offset="0.14" stop-color="#E6E6E6"/>
<stop offset="0.22" stop-color="#C3C4C5"/>
<stop offset="0.38" stop-color="#898A8C"/>
<stop offset="0.53" stop-color="#585A5D"/>
<stop offset="0.67" stop-color="#323438"/>
<stop offset="0.8" stop-color="#16191E"/>
<stop offset="0.91" stop-color="#06090E"/>
<stop offset="1" stop-color="#000308"/>
</linearGradient>
<linearGradient id="paint4_linear_209_141" x1="1609.04" y1="198.159" x2="1478.8" y2="198.159" gradientUnits="userSpaceOnUse">
<stop offset="0.14" stop-color="#E6E6E6"/>
<stop offset="0.22" stop-color="#C3C4C5"/>
<stop offset="0.38" stop-color="#898A8C"/>
<stop offset="0.53" stop-color="#585A5D"/>
<stop offset="0.67" stop-color="#323438"/>
<stop offset="0.8" stop-color="#16191E"/>
<stop offset="0.91" stop-color="#06090E"/>
<stop offset="1" stop-color="#000308"/>
</linearGradient>
<linearGradient id="paint5_linear_209_141" x1="296.479" y1="188.434" x2="284.07" y2="188.434" gradientUnits="userSpaceOnUse">
<stop offset="0.14" stop-color="#E6E6E6"/>
<stop offset="0.22" stop-color="#C3C4C5"/>
<stop offset="0.38" stop-color="#898A8C"/>
<stop offset="0.53" stop-color="#585A5D"/>
<stop offset="0.67" stop-color="#323438"/>
<stop offset="0.8" stop-color="#16191E"/>
<stop offset="0.91" stop-color="#06090E"/>
<stop offset="1" stop-color="#000308"/>
</linearGradient>
<linearGradient id="paint6_linear_209_141" x1="531.035" y1="543.305" x2="390.653" y2="543.305" gradientUnits="userSpaceOnUse">
<stop offset="0.14" stop-color="#E6E6E6"/>
<stop offset="0.22" stop-color="#C3C4C5"/>
<stop offset="0.38" stop-color="#898A8C"/>
<stop offset="0.53" stop-color="#585A5D"/>
<stop offset="0.67" stop-color="#323438"/>
<stop offset="0.8" stop-color="#16191E"/>
<stop offset="0.91" stop-color="#06090E"/>
<stop offset="1" stop-color="#000308"/>
</linearGradient>
<linearGradient id="paint7_linear_209_141" x1="1970.78" y1="600.405" x2="1835.91" y2="600.405" gradientUnits="userSpaceOnUse">
<stop offset="0.14" stop-color="#E6E6E6"/>
<stop offset="0.22" stop-color="#C3C4C5"/>
<stop offset="0.38" stop-color="#898A8C"/>
<stop offset="0.53" stop-color="#585A5D"/>
<stop offset="0.67" stop-color="#323438"/>
<stop offset="0.8" stop-color="#16191E"/>
<stop offset="0.91" stop-color="#06090E"/>
<stop offset="1" stop-color="#000308"/>
</linearGradient>
<linearGradient id="paint8_linear_209_141" x1="90.536" y1="289.39" x2="-240" y2="289.39" gradientUnits="userSpaceOnUse">
<stop offset="0.14" stop-color="#E6E6E6"/>
<stop offset="0.22" stop-color="#C3C4C5"/>
<stop offset="0.38" stop-color="#898A8C"/>
<stop offset="0.53" stop-color="#585A5D"/>
<stop offset="0.67" stop-color="#323438"/>
<stop offset="0.8" stop-color="#16191E"/>
<stop offset="0.91" stop-color="#06090E"/>
<stop offset="1" stop-color="#000308"/>
</linearGradient>
<linearGradient id="paint9_linear_209_141" x1="180.404" y1="319.213" x2="156.884" y2="319.213" gradientUnits="userSpaceOnUse">
<stop offset="0.14" stop-color="#E6E6E6"/>
<stop offset="0.22" stop-color="#C3C4C5"/>
<stop offset="0.38" stop-color="#898A8C"/>
<stop offset="0.53" stop-color="#585A5D"/>
<stop offset="0.67" stop-color="#323438"/>
<stop offset="0.8" stop-color="#16191E"/>
<stop offset="0.91" stop-color="#06090E"/>
<stop offset="1" stop-color="#000308"/>
</linearGradient>
<linearGradient id="paint10_linear_209_141" x1="94.5178" y1="552.012" x2="-194.533" y2="552.012" gradientUnits="userSpaceOnUse">
<stop offset="0.14" stop-color="#E6E6E6"/>
<stop offset="0.22" stop-color="#C3C4C5"/>
<stop offset="0.38" stop-color="#898A8C"/>
<stop offset="0.53" stop-color="#585A5D"/>
<stop offset="0.67" stop-color="#323438"/>
<stop offset="0.8" stop-color="#16191E"/>
<stop offset="0.91" stop-color="#06090E"/>
<stop offset="1" stop-color="#000308"/>
</linearGradient>
<linearGradient id="paint11_linear_209_141" x1="936.345" y1="487.503" x2="669.888" y2="487.503" gradientUnits="userSpaceOnUse">
<stop offset="0.14" stop-color="#E6E6E6"/>
<stop offset="0.22" stop-color="#C3C4C5"/>
<stop offset="0.38" stop-color="#898A8C"/>
<stop offset="0.53" stop-color="#585A5D"/>
<stop offset="0.67" stop-color="#323438"/>
<stop offset="0.8" stop-color="#16191E"/>
<stop offset="0.91" stop-color="#06090E"/>
<stop offset="1" stop-color="#000308"/>
</linearGradient>
<linearGradient id="paint12_linear_209_141" x1="1586.81" y1="572.527" x2="1565.33" y2="572.527" gradientUnits="userSpaceOnUse">
<stop offset="0.14" stop-color="#E6E6E6"/>
<stop offset="0.22" stop-color="#C3C4C5"/>
<stop offset="0.38" stop-color="#898A8C"/>
<stop offset="0.53" stop-color="#585A5D"/>
<stop offset="0.67" stop-color="#323438"/>
<stop offset="0.8" stop-color="#16191E"/>
<stop offset="0.91" stop-color="#06090E"/>
<stop offset="1" stop-color="#000308"/>
</linearGradient>
<linearGradient id="paint13_linear_209_141" x1="1583.99" y1="379.23" x2="1455.51" y2="379.23" gradientUnits="userSpaceOnUse">
<stop offset="0.14" stop-color="#E6E6E6"/>
<stop offset="0.22" stop-color="#C3C4C5"/>
<stop offset="0.38" stop-color="#898A8C"/>
<stop offset="0.53" stop-color="#585A5D"/>
<stop offset="0.67" stop-color="#323438"/>
<stop offset="0.8" stop-color="#16191E"/>
<stop offset="0.91" stop-color="#06090E"/>
<stop offset="1" stop-color="#000308"/>
</linearGradient>
<linearGradient id="paint14_linear_209_141" x1="322.314" y1="445.175" x2="190.266" y2="445.175" gradientUnits="userSpaceOnUse">
<stop offset="0.14" stop-color="#E6E6E6"/>
<stop offset="0.22" stop-color="#C3C4C5"/>
<stop offset="0.38" stop-color="#898A8C"/>
<stop offset="0.53" stop-color="#585A5D"/>
<stop offset="0.67" stop-color="#323438"/>
<stop offset="0.8" stop-color="#16191E"/>
<stop offset="0.91" stop-color="#06090E"/>
<stop offset="1" stop-color="#000308"/>
</linearGradient>
<linearGradient id="paint15_linear_209_141" x1="968.339" y1="291.195" x2="930.002" y2="291.195" gradientUnits="userSpaceOnUse">
<stop offset="0.14" stop-color="#E6E6E6"/>
<stop offset="0.22" stop-color="#C3C4C5"/>
<stop offset="0.38" stop-color="#898A8C"/>
<stop offset="0.53" stop-color="#585A5D"/>
<stop offset="0.67" stop-color="#323438"/>
<stop offset="0.8" stop-color="#16191E"/>
<stop offset="0.91" stop-color="#06090E"/>
<stop offset="1" stop-color="#000308"/>
</linearGradient>
<linearGradient id="paint16_linear_209_141" x1="267.402" y1="609.76" x2="229.066" y2="609.76" gradientUnits="userSpaceOnUse">
<stop offset="0.14" stop-color="#E6E6E6"/>
<stop offset="0.22" stop-color="#C3C4C5"/>
<stop offset="0.38" stop-color="#898A8C"/>
<stop offset="0.53" stop-color="#585A5D"/>
<stop offset="0.67" stop-color="#323438"/>
<stop offset="0.8" stop-color="#16191E"/>
<stop offset="0.91" stop-color="#06090E"/>
<stop offset="1" stop-color="#000308"/>
</linearGradient>
<linearGradient id="paint17_linear_209_141" x1="770.035" y1="428.272" x2="484.364" y2="428.272" gradientUnits="userSpaceOnUse">
<stop offset="0.14" stop-color="#E6E6E6"/>
<stop offset="0.22" stop-color="#C3C4C5"/>
<stop offset="0.38" stop-color="#898A8C"/>
<stop offset="0.53" stop-color="#585A5D"/>
<stop offset="0.67" stop-color="#323438"/>
<stop offset="0.8" stop-color="#16191E"/>
<stop offset="0.91" stop-color="#06090E"/>
<stop offset="1" stop-color="#000308"/>
</linearGradient>
<linearGradient id="paint18_linear_209_141" x1="1424.12" y1="167.595" x2="1099.41" y2="167.595" gradientUnits="userSpaceOnUse">
<stop offset="0.14" stop-color="#E6E6E6"/>
<stop offset="0.22" stop-color="#C3C4C5"/>
<stop offset="0.38" stop-color="#898A8C"/>
<stop offset="0.53" stop-color="#585A5D"/>
<stop offset="0.67" stop-color="#323438"/>
<stop offset="0.8" stop-color="#16191E"/>
<stop offset="0.91" stop-color="#06090E"/>
<stop offset="1" stop-color="#000308"/>
</linearGradient>
<linearGradient id="paint19_linear_209_141" x1="1192.85" y1="547.242" x2="1084.64" y2="547.242" gradientUnits="userSpaceOnUse">
<stop offset="0.14" stop-color="#E6E6E6"/>
<stop offset="0.22" stop-color="#C3C4C5"/>
<stop offset="0.38" stop-color="#898A8C"/>
<stop offset="0.53" stop-color="#585A5D"/>
<stop offset="0.67" stop-color="#323438"/>
<stop offset="0.8" stop-color="#16191E"/>
<stop offset="0.91" stop-color="#06090E"/>
<stop offset="1" stop-color="#000308"/>
</linearGradient>
<linearGradient id="paint20_linear_209_141" x1="1134.37" y1="179.589" x2="1122.15" y2="179.589" gradientUnits="userSpaceOnUse">
<stop offset="0.14" stop-color="#E6E6E6"/>
<stop offset="0.22" stop-color="#C3C4C5"/>
<stop offset="0.38" stop-color="#898A8C"/>
<stop offset="0.53" stop-color="#585A5D"/>
<stop offset="0.67" stop-color="#323438"/>
<stop offset="0.8" stop-color="#16191E"/>
<stop offset="0.91" stop-color="#06090E"/>
<stop offset="1" stop-color="#000308"/>
</linearGradient>
<linearGradient id="paint21_linear_209_141" x1="2279.05" y1="182.923" x2="1913.23" y2="182.923" gradientUnits="userSpaceOnUse">
<stop offset="0.14" stop-color="#E6E6E6"/>
<stop offset="0.22" stop-color="#C3C4C5"/>
<stop offset="0.38" stop-color="#898A8C"/>
<stop offset="0.53" stop-color="#585A5D"/>
<stop offset="0.67" stop-color="#323438"/>
<stop offset="0.8" stop-color="#16191E"/>
<stop offset="0.91" stop-color="#06090E"/>
<stop offset="1" stop-color="#000308"/>
</linearGradient>
<linearGradient id="paint22_linear_209_141" x1="1068.39" y1="494.31" x2="943.892" y2="494.31" gradientUnits="userSpaceOnUse">
<stop offset="0.14" stop-color="#E6E6E6"/>
<stop offset="0.22" stop-color="#C3C4C5"/>
<stop offset="0.38" stop-color="#898A8C"/>
<stop offset="0.53" stop-color="#585A5D"/>
<stop offset="0.67" stop-color="#323438"/>
<stop offset="0.8" stop-color="#16191E"/>
<stop offset="0.91" stop-color="#06090E"/>
<stop offset="1" stop-color="#000308"/>
</linearGradient>
<linearGradient id="paint23_linear_209_141" x1="833.189" y1="225.343" x2="818.373" y2="225.343" gradientUnits="userSpaceOnUse">
<stop offset="0.14" stop-color="#E6E6E6"/>
<stop offset="0.22" stop-color="#C3C4C5"/>
<stop offset="0.38" stop-color="#898A8C"/>
<stop offset="0.53" stop-color="#585A5D"/>
<stop offset="0.67" stop-color="#323438"/>
<stop offset="0.8" stop-color="#16191E"/>
<stop offset="0.91" stop-color="#06090E"/>
<stop offset="1" stop-color="#000308"/>
</linearGradient>
<linearGradient id="paint24_linear_209_141" x1="1774.84" y1="554.235" x2="1613.53" y2="554.235" gradientUnits="userSpaceOnUse">
<stop offset="0.14" stop-color="#E6E6E6"/>
<stop offset="0.22" stop-color="#C3C4C5"/>
<stop offset="0.38" stop-color="#898A8C"/>
<stop offset="0.53" stop-color="#585A5D"/>
<stop offset="0.67" stop-color="#323438"/>
<stop offset="0.8" stop-color="#16191E"/>
<stop offset="0.91" stop-color="#06090E"/>
<stop offset="1" stop-color="#000308"/>
</linearGradient>
<linearGradient id="paint25_linear_209_141" x1="717.207" y1="188.017" x2="568.26" y2="188.017" gradientUnits="userSpaceOnUse">
<stop offset="0.14" stop-color="#E6E6E6"/>
<stop offset="0.22" stop-color="#C3C4C5"/>
<stop offset="0.38" stop-color="#898A8C"/>
<stop offset="0.53" stop-color="#585A5D"/>
<stop offset="0.67" stop-color="#323438"/>
<stop offset="0.8" stop-color="#16191E"/>
<stop offset="0.91" stop-color="#06090E"/>
<stop offset="1" stop-color="#000308"/>
</linearGradient>
<linearGradient id="paint26_linear_209_141" x1="1520.7" y1="537.239" x2="1123.26" y2="537.239" gradientUnits="userSpaceOnUse">
<stop offset="0.14" stop-color="#E6E6E6"/>
<stop offset="0.22" stop-color="#C3C4C5"/>
<stop offset="0.38" stop-color="#898A8C"/>
<stop offset="0.53" stop-color="#585A5D"/>
<stop offset="0.67" stop-color="#323438"/>
<stop offset="0.8" stop-color="#16191E"/>
<stop offset="0.91" stop-color="#06090E"/>
<stop offset="1" stop-color="#000308"/>
</linearGradient>
<clipPath id="clip0_209_141">
<rect width="2519" height="736" fill="white" transform="translate(-240)"/>
</clipPath>
</defs>
</svg>
