<svg width="129" height="129" viewBox="0 0 129 129" fill="none" xmlns="http://www.w3.org/2000/svg">
<rect width="129" height="129" rx="40" fill="#2A99FF"/>
<path fill-rule="evenodd" clip-rule="evenodd" d="M49.4964 26.0025C50.9364 26.0607 52.1384 27.1331 52.3753 28.5711L62.3238 88.9538L70.7837 59.0009C71.1501 57.7037 72.309 56.7993 73.6423 56.77C74.9755 56.7406 76.1722 57.5933 76.5939 58.8731L81.984 75.2307H91.9583C93.6382 75.2307 95 76.6083 95 78.3077C95 80.007 93.6382 81.3846 91.9583 81.3846H79.7917C78.4824 81.3846 77.3201 80.5371 76.9061 79.2807L73.9319 70.2547L64.4663 103.768C64.0756 105.152 62.7895 106.076 61.3697 105.995C59.9498 105.914 58.7752 104.848 58.5414 103.429L48.7789 44.1753L40.1592 79.0539C39.8207 80.4237 38.6041 81.3846 37.2083 81.3846H25.0417C23.3618 81.3846 22 80.007 22 78.3077C22 76.6083 23.3618 75.2307 25.0417 75.2307H34.8335L46.4242 28.3307C46.7737 26.9164 48.0564 25.9443 49.4964 26.0025Z" fill="white"/>
<path fill-rule="evenodd" clip-rule="evenodd" d="M99 75.3333C97.3431 75.3333 96 76.7511 96 78.5C96 80.2489 97.3431 81.6667 99 81.6667C100.657 81.6667 102 80.2489 102 78.5C102 76.7511 100.657 75.3333 99 75.3333ZM90 78.5C90 73.2533 94.0294 69 99 69C103.971 69 108 73.2533 108 78.5C108 83.7467 103.971 88 99 88C94.0294 88 90 83.7467 90 78.5Z" fill="white"/>
</svg>
