<svg width="84" height="83" viewBox="0 0 84 83" fill="none" xmlns="http://www.w3.org/2000/svg">
<path d="M31.625 76.0837C29.55 76.0837 28.1666 74.7003 28.1666 72.6253V62.2503H14.3333C10.5291 62.2503 7.41663 59.1378 7.41663 55.3337V13.8337C7.41663 10.0295 10.5291 6.91699 14.3333 6.91699H69.6666C73.4708 6.91699 76.5833 10.0295 76.5833 13.8337V55.3337C76.5833 59.1378 73.4708 62.2503 69.6666 62.2503H48.5708L35.775 75.0462C35.0833 75.7378 34.3916 76.0837 33.3541 76.0837H31.625ZM35.0833 55.3337V66.0545L45.8041 55.3337H69.6666V13.8337H14.3333V55.3337H35.0833ZM56.8708 20.7503L52.0291 31.1253H59.2916V44.9587H45.4583V30.4337L49.9541 20.7503H56.8708ZM36.1208 20.7503L31.2791 31.1253H38.5416V44.9587H24.7083V30.4337L29.2041 20.7503H36.1208Z" fill="url(#paint0_linear_205_13)"/>
<defs>
<linearGradient id="paint0_linear_205_13" x1="42" y1="6.91699" x2="42" y2="76.0837" gradientUnits="userSpaceOnUse">
<stop stop-color="#46A63D"/>
<stop offset="1" stop-color="#2A99FF"/>
</linearGradient>
</defs>
</svg>
