<svg width="179" height="21" viewBox="0 0 179 21" fill="none" xmlns="http://www.w3.org/2000/svg">
<g clip-path="url(#clip0_213_276)">
<path fill-rule="evenodd" clip-rule="evenodd" d="M117.673 10.2016C117.673 6.23571 115.053 3.86726 111.124 3.84961C107.144 3.84961 104.576 6.46175 104.576 10.1663C104.576 14.1498 107.195 16.5191 111.124 16.5191C115.105 16.5191 117.673 13.9038 117.673 10.2016ZM115.369 10.184C115.369 12.7632 113.743 14.5009 111.142 14.5009V14.4985C108.347 14.4809 106.88 12.5861 106.88 10.184C106.88 7.62229 108.489 5.88466 111.108 5.86701C113.902 5.88466 115.369 7.7794 115.369 10.184Z" fill="#FF0D65"/>
<path fill-rule="evenodd" clip-rule="evenodd" d="M144.162 10.2016C144.162 6.23571 141.543 3.86726 137.614 3.84961C133.633 3.84961 131.066 6.46175 131.065 10.1663C131.065 14.1498 133.685 16.5191 137.614 16.5191C141.595 16.5191 144.162 13.9038 144.162 10.2016ZM141.859 10.184C141.859 12.7632 140.233 14.5009 137.631 14.5009L137.632 14.4985C134.838 14.4809 133.371 12.5861 133.37 10.184C133.37 7.62229 134.978 5.88466 137.598 5.86701C140.392 5.88466 141.859 7.7794 141.859 10.184Z" fill="#FF0D65"/>
<path fill-rule="evenodd" clip-rule="evenodd" d="M146.451 16.3232V4.04004H151.759C154.483 4.04004 155.88 5.05715 155.88 7.09302C155.88 8.49646 155.322 9.42701 154.064 9.91835C155.566 10.1812 156.247 11.1463 156.247 12.7428C156.247 15.2877 154.431 16.3232 151.462 16.3232H146.451ZM151.445 9.23381C152.824 9.23381 153.697 8.61991 153.697 7.56666C153.697 6.58406 153.051 6.05744 151.497 6.05744H148.634V9.23381H151.445ZM151.604 14.305C153.279 14.305 154.049 13.7608 154.049 12.585C154.049 11.4092 153.176 10.9531 151.639 10.9531H148.636V14.305H151.604Z" fill="#FF0D65"/>
<path fill-rule="evenodd" clip-rule="evenodd" d="M162.568 7.86486H160.909V4.04004H158.727V16.3232H162.589C166.151 16.3232 168.072 14.8837 168.072 12.0239C168.072 9.2515 166.444 7.86486 162.568 7.86486ZM160.909 14.305V9.88303H162.76C164.891 9.88303 165.816 10.4618 165.816 11.971C165.816 13.6381 164.769 14.305 162.725 14.305H160.909Z" fill="#FF0D65"/>
<path d="M172.539 11.006H178.163L178.165 8.98779H172.542V6.05744H178.811V4.04004H170.356V16.3232H179V14.305H172.539V11.006Z" fill="#FF0D65"/>
<path fill-rule="evenodd" clip-rule="evenodd" d="M122.14 12.4976V16.3232H119.957V4.04004H124.025C127.883 4.04004 129.528 5.42585 129.528 8.19826C129.528 11.0589 127.608 12.4976 124.025 12.4976H122.14ZM122.14 6.05744V10.4794H124.183C126.208 10.4794 127.256 9.81252 127.256 8.1462C127.256 6.63694 126.348 6.05744 124.218 6.05744H122.14Z" fill="#FF0D65"/>
<path fill-rule="evenodd" clip-rule="evenodd" d="M92.1946 14.305C92.8927 12.6378 93.399 10.3215 93.4521 6.58406L93.4866 4.04004H102.078V14.305H103.492V18.6043H101.45V16.3232H92.9099V18.6043H90.8674V14.305H92.1946ZM94.3253 14.305H99.8948V6.05744H95.478V6.63694C95.4076 9.84777 95.0209 12.375 94.3253 14.305Z" fill="#FF0D65"/>
<path d="M84.5807 3.86426C82.6424 3.86426 81.2283 4.44297 80.5295 4.9519L80.5276 8.00492C81.2443 6.91718 82.7287 5.84722 84.5788 5.88166C85.8714 5.91693 86.884 6.37296 86.884 7.51352C86.884 8.42644 86.3426 9.18073 84.7712 9.18073H82.9364V10.9881H84.7878C86.691 10.9881 87.4946 11.4971 87.4946 12.5847C87.4946 13.8311 86.3074 14.4627 84.823 14.4803C82.5695 14.4979 80.9809 13.5153 80.2303 12.2689V14.9716C80.8799 15.7082 82.5695 16.5162 84.7878 16.4985C88.0712 16.4809 89.7647 14.849 89.7647 12.7258C89.7647 11.1108 88.8588 10.1281 86.9729 9.84757C88.3876 9.33861 89.1382 8.39119 89.1382 6.9525C89.1382 4.79402 87.3219 3.88191 84.5807 3.86426Z" fill="#FF0D65"/>
<path d="M33.1484 14.1266C33.9421 14.131 34.724 13.9351 35.4216 13.557L36.0053 13.2412L37.7091 14.4956C36.5849 15.6983 34.9279 16.3593 33.0298 16.3593C31.2152 16.3593 29.5567 15.7158 28.3704 14.5569C27.184 13.3979 26.5303 11.7872 26.5303 10.0372C26.5303 8.28728 27.1936 6.70039 28.3776 5.58285C29.5615 4.46529 31.2192 3.84961 33.0465 3.84961C34.7313 3.84961 36.2043 4.36108 37.307 5.32911L37.4321 5.43491L35.5434 6.8253C34.8456 6.32674 34.0063 6.06445 33.1484 6.07681C30.7749 6.07681 29.0519 7.76948 29.0519 10.1017C29.0519 12.4339 30.7749 14.1266 33.1484 14.1266Z" fill="#21A038"/>
<path fill-rule="evenodd" clip-rule="evenodd" d="M45.778 8.75792H42.574V6.03596H47.688L50.4446 4.00684H39.9409V16.1968H45.4348C48.5185 16.1968 50.2869 14.8008 50.2869 12.3676C50.2901 10.0402 48.6873 8.75792 45.778 8.75792ZM45.3194 14.1668H42.574V10.7879H45.3194C46.9914 10.7879 47.7685 11.3534 47.7685 12.4774C47.7685 13.626 46.9412 14.1668 45.3194 14.1668Z" fill="#21A038"/>
<path d="M61.9673 4.00684L59.2108 6.03596H55.3747V9.01648H60.9983V11.0464H55.3747V14.1668H61.9673V16.1968H52.7416V4.00684H61.9673Z" fill="#21A038"/>
<path fill-rule="evenodd" clip-rule="evenodd" d="M64.4189 4.00684H69.4424C72.6471 4.00684 74.6366 5.67802 74.6366 8.36898C74.6366 11.0599 72.6452 12.7438 69.4405 12.7438H67.0521V16.1968H64.4189V4.00684ZM67.0521 10.7138H69.3855C71.0726 10.7138 72.0008 9.88346 72.0008 8.37534C72.0008 6.86722 71.0726 6.03596 69.3855 6.03596H67.0521V10.7138Z" fill="#21A038"/>
<path d="M18.2008 3.95703C18.6804 4.57842 19.0905 5.2574 19.4184 5.98115L10.1609 12.8205L6.29297 10.3901V7.46628L10.1609 9.89662L18.2008 3.95703Z" fill="#21A038"/>
<path d="M2.34727 10.1834C2.34727 10.0522 2.35047 9.9219 2.35685 9.79234L0.0127659 9.6748C0.00478739 9.8435 0 10.0131 0 10.1834C0 12.9953 1.13694 15.5416 2.97598 17.385L4.6379 15.7192C3.22411 14.3004 2.34727 12.3427 2.34727 10.1834Z" fill="url(#paint0_linear_213_276)"/>
<path d="M10.1607 2.35201C10.2916 2.35201 10.4216 2.35681 10.5509 2.36321L10.6682 0.012796C10.4998 0.00479868 10.3306 0 10.1607 0C7.35546 0 4.81512 1.13962 2.97607 2.983L4.638 4.64884C6.05338 3.23012 8.0065 2.35201 10.1607 2.35201Z" fill="url(#paint1_linear_213_276)"/>
<path d="M10.1604 18.0158C10.0296 18.0158 9.89953 18.0126 9.77026 18.0062L9.65295 20.3558C9.82128 20.3638 9.99043 20.3686 10.1604 20.3686C12.9656 20.3686 15.506 19.229 17.345 17.3856L15.6831 15.7197C14.2677 17.1369 12.3146 18.0158 10.1604 18.0158Z" fill="url(#paint2_linear_213_276)"/>
<path d="M14.5654 3.71875L16.5417 2.25924C14.7976 0.846116 12.578 0 10.1605 0V2.35281C11.7937 2.35201 13.3104 2.85744 14.5654 3.71875Z" fill="url(#paint3_linear_213_276)"/>
<path d="M20.3207 10.1834C20.3207 9.56036 20.2648 8.95098 20.1579 8.3584L17.971 9.97381C17.9726 10.0434 17.9742 10.113 17.9742 10.1825C17.9742 12.4818 16.98 14.5531 15.4003 15.987L16.9776 17.7345C19.0305 15.8718 20.3207 13.1783 20.3207 10.1834Z" fill="#21A038"/>
<path d="M10.1606 18.0155C7.86675 18.0155 5.80031 17.019 4.36977 15.4355L2.62646 17.0166C4.48546 19.0751 7.17262 20.3683 10.1606 20.3683V18.0155Z" fill="url(#paint4_linear_213_276)"/>
<path d="M4.92114 4.37925L3.34379 2.63184C1.29012 4.49521 0 7.18873 0 10.1837H2.34727C2.34807 7.88371 3.34139 5.81317 4.92114 4.37925Z" fill="url(#paint5_linear_213_276)"/>
</g>
<defs>
<linearGradient id="paint0_linear_213_276" x1="3.45139" y1="17.09" x2="0.876012" y2="9.66327" gradientUnits="userSpaceOnUse">
<stop offset="0.1444" stop-color="#F2E913"/>
<stop offset="0.3037" stop-color="#E7E518"/>
<stop offset="0.5823" stop-color="#CADB26"/>
<stop offset="0.891" stop-color="#A3CD39"/>
</linearGradient>
<linearGradient id="paint1_linear_213_276" x1="3.64692" y1="3.39891" x2="10.2561" y2="0.886231" gradientUnits="userSpaceOnUse">
<stop offset="0.0592" stop-color="#0FA8E0"/>
<stop offset="0.5385" stop-color="#0099F9"/>
<stop offset="0.9234" stop-color="#0291EB"/>
</linearGradient>
<linearGradient id="paint2_linear_213_276" x1="9.49806" y1="18.9486" x2="16.9692" y2="17.2641" gradientUnits="userSpaceOnUse">
<stop offset="0.1226" stop-color="#A3CD39"/>
<stop offset="0.2846" stop-color="#86C339"/>
<stop offset="0.8693" stop-color="#21A038"/>
</linearGradient>
<linearGradient id="paint3_linear_213_276" x1="9.66942" y1="0.788047" x2="16.0582" y2="2.75463" gradientUnits="userSpaceOnUse">
<stop offset="0.0566" stop-color="#0291EB"/>
<stop offset="0.79" stop-color="#0C8ACB"/>
</linearGradient>
<linearGradient id="paint4_linear_213_276" x1="3.21522" y1="16.7298" x2="10.1706" y2="19.3225" gradientUnits="userSpaceOnUse">
<stop offset="0.1324" stop-color="#F2E913"/>
<stop offset="0.2977" stop-color="#EBE716"/>
<stop offset="0.5306" stop-color="#D9E01F"/>
<stop offset="0.8023" stop-color="#BBD62D"/>
<stop offset="0.9829" stop-color="#A3CD39"/>
</linearGradient>
<linearGradient id="paint5_linear_213_276" x1="0.874811" y1="10.4687" x2="3.67661" y2="3.19733" gradientUnits="userSpaceOnUse">
<stop offset="0.0698" stop-color="#A3CD39"/>
<stop offset="0.2599" stop-color="#81C55F"/>
<stop offset="0.9216" stop-color="#0FA8E0"/>
</linearGradient>
<clipPath id="clip0_213_276">
<rect width="179" height="21" fill="white"/>
</clipPath>
</defs>
</svg>
