<svg width="48" height="48" viewBox="0 0 48 48" fill="none" xmlns="http://www.w3.org/2000/svg">
<path d="M24 4C13 4 4 13 4 24C4 35 13 44 24 44C35 44 44 35 44 24C44 13 35 4 24 4Z" fill="#1876D2"/>
<path d="M25.2 33.1998C16.2 33.1998 11.1 27.0998 10.9 16.7998H15.4C15.5 24.2998 18.9 27.4998 21.5 28.0998V16.7998H25.7V23.2998C28.3 22.9998 31 20.0998 31.9 16.7998H36.1C35.4 20.7998 32.4 23.7998 30.3 24.9998C32.4 25.9998 35.8 28.5998 37 33.1998H32.3C31.3 30.0998 28.8 27.6998 25.5 27.2998V33.1998H25.2Z" fill="white"/>
</svg>
