<svg width="62" height="62" viewBox="0 0 62 62" fill="none" xmlns="http://www.w3.org/2000/svg">
<g filter="url(#filter0_d_232_1004)">
<path d="M4.19504 27.6649C4.19373 32.3699 5.43273 36.9641 7.78866 41.0135L3.96973 54.8489L18.2392 51.1365C22.186 53.2684 26.608 54.3855 31.1017 54.3858H31.1135C45.9481 54.3858 58.0237 42.408 58.0301 27.6859C58.0329 20.552 55.2355 13.8437 50.1531 8.79676C45.0715 3.75025 38.3133 0.969564 31.1124 0.966309C16.2762 0.966309 4.20138 12.9434 4.19526 27.6649" fill="url(#paint0_linear_232_1004)"/>
</g>
<path d="M3.23406 27.6562C3.23253 32.5306 4.51594 37.2891 6.95587 41.4834L3 55.8149L17.7812 51.9693C21.8538 54.1726 26.4393 55.3343 31.1052 55.336H31.1172C46.484 55.336 58.9934 42.9275 59 27.6783C59.0026 20.2881 56.1046 13.3386 50.8406 8.11088C45.576 2.88378 38.576 0.00303876 31.1172 0C15.7479 0 3.24019 12.4068 3.23406 27.6562ZM12.0366 40.7611L11.4847 39.8918C9.16459 36.2313 7.94003 32.0014 7.94178 27.6579C7.94681 14.983 18.3427 4.67101 31.126 4.67101C37.3166 4.67361 43.1345 7.06816 47.5104 11.4127C51.886 15.7577 54.2938 21.5335 54.2923 27.6766C54.2866 40.3515 43.8905 50.6648 31.1172 50.6648H31.1081C26.949 50.6626 22.8699 49.5544 19.3126 47.46L18.4661 46.9619L9.69462 49.2438L12.0366 40.7608V40.7611Z" fill="url(#paint1_linear_232_1004)"/>
<path d="M24.1483 16.0941C23.6263 14.943 23.0771 14.9198 22.5807 14.8996C22.1743 14.8823 21.7097 14.8836 21.2455 14.8836C20.7808 14.8836 20.0259 15.057 19.3878 15.7483C18.7491 16.4403 16.9492 18.1125 16.9492 21.5135C16.9492 24.9147 19.4458 28.2016 19.7938 28.6633C20.1423 29.1241 24.6136 36.3268 31.6949 39.0977C37.5802 41.4004 38.7778 40.9425 40.0551 40.827C41.3326 40.7119 44.1772 39.1552 44.7576 37.541C45.3384 35.927 45.3384 34.5435 45.1642 34.2544C44.9901 33.9663 44.5255 33.7933 43.8288 33.4478C43.1318 33.102 39.7067 31.4296 39.0681 31.1989C38.4294 30.9684 37.965 30.8533 37.5003 31.5455C37.0357 32.2366 35.7016 33.7933 35.2949 34.2544C34.8887 34.7165 34.482 34.774 33.7855 34.4282C33.0884 34.0814 30.8447 33.3523 28.1827 30.9975C26.1116 29.1651 24.7133 26.9023 24.3069 26.2101C23.9004 25.519 24.2633 25.1444 24.6127 24.7999C24.9257 24.4902 25.3096 23.9927 25.6583 23.5892C26.0057 23.1855 26.1216 22.8974 26.3539 22.4364C26.5865 21.9749 26.4701 21.5712 26.2962 21.2255C26.1216 20.8797 24.7678 17.4609 24.1483 16.0941Z" fill="white"/>
<defs>
<filter id="filter0_d_232_1004" x="0.858615" y="0.966309" width="60.2828" height="60.1049" filterUnits="userSpaceOnUse" color-interpolation-filters="sRGB">
<feFlood flood-opacity="0" result="BackgroundImageFix"/>
<feColorMatrix in="SourceAlpha" type="matrix" values="0 0 0 0 0 0 0 0 0 0 0 0 0 0 0 0 0 0 127 0" result="hardAlpha"/>
<feOffset dy="3.11111"/>
<feGaussianBlur stdDeviation="1.55556"/>
<feComposite in2="hardAlpha" operator="out"/>
<feColorMatrix type="matrix" values="0 0 0 0 0 0 0 0 0 0 0 0 0 0 0 0 0 0 0.25 0"/>
<feBlend mode="normal" in2="BackgroundImageFix" result="effect1_dropShadow_232_1004"/>
<feBlend mode="normal" in="SourceGraphic" in2="effect1_dropShadow_232_1004" result="shape"/>
</filter>
<linearGradient id="paint0_linear_232_1004" x1="2706.99" y1="5389.23" x2="2706.99" y2="0.966309" gradientUnits="userSpaceOnUse">
<stop stop-color="#1FAF38"/>
<stop offset="1" stop-color="#60D669"/>
</linearGradient>
<linearGradient id="paint1_linear_232_1004" x1="2803" y1="5581.49" x2="2803" y2="0" gradientUnits="userSpaceOnUse">
<stop stop-color="#F9F9F9"/>
<stop offset="1" stop-color="white"/>
</linearGradient>
</defs>
</svg>
