<svg width="40" height="40" viewBox="0 0 40 40" fill="none" xmlns="http://www.w3.org/2000/svg">
<g filter="url(#filter0_d_115_77)">
<path d="M2.76826 17.7846C2.76741 20.8093 3.56391 23.7627 5.07844 26.3658L2.62341 35.26L11.7967 32.8734C14.3339 34.244 17.1766 34.9621 20.0654 34.9623H20.073C29.6095 34.9623 37.3724 27.2623 37.3765 17.7981C37.3783 13.212 35.58 8.89953 32.3127 5.65507C29.046 2.41088 24.7014 0.623301 20.0723 0.621208C10.5347 0.621208 2.77233 8.32074 2.7684 17.7846" fill="url(#paint0_linear_115_77)"/>
</g>
<path d="M2.15047 17.779C2.14948 20.9125 2.97453 23.9715 4.54306 26.6679L2 35.881L11.5022 33.4088C14.1203 34.8253 17.0681 35.572 20.0676 35.5732H20.0754C29.954 35.5732 37.9958 27.5962 38 17.7932C38.0017 13.0423 36.1387 8.57484 32.7547 5.21414C29.3703 1.85386 24.8703 0.00195349 20.0754 0C10.1951 0 2.15441 7.97581 2.15047 17.779ZM7.80922 26.2035L7.45442 25.6447C5.96295 23.2916 5.17573 20.5723 5.17686 17.7801C5.18009 9.63195 11.8632 3.00279 20.081 3.00279C24.0607 3.00447 27.8007 4.54381 30.6138 7.33674C33.4267 10.13 34.9746 13.843 34.9736 17.7921C34.97 25.9402 28.2867 32.5702 20.0754 32.5702H20.0695C17.3958 32.5688 14.7735 31.8564 12.4867 30.51L11.9425 30.1898L6.30369 31.6567L7.80922 26.2034V26.2035Z" fill="url(#paint1_linear_115_77)"/>
<path d="M15.5954 10.3462C15.2598 9.60628 14.9067 9.59135 14.5877 9.57837C14.3264 9.56721 14.0277 9.56805 13.7293 9.56805C13.4306 9.56805 12.9453 9.67953 12.5351 10.124C12.1245 10.5688 10.9674 11.6438 10.9674 13.8301C10.9674 16.0167 12.5724 18.1296 12.7961 18.4264C13.0201 18.7227 15.8945 23.353 20.4468 25.1343C24.2302 26.6146 25.0001 26.3202 25.8212 26.246C26.6425 26.172 28.4711 25.1713 28.8442 24.1335C29.2176 23.096 29.2176 22.2066 29.1056 22.0207C28.9937 21.8355 28.695 21.7243 28.2471 21.5022C27.7991 21.2799 25.5972 20.2048 25.1867 20.0565C24.7761 19.9083 24.4775 19.8343 24.1788 20.2793C23.8802 20.7236 23.0225 21.7243 22.7611 22.0207C22.4999 22.3178 22.2385 22.3547 21.7907 22.1325C21.3426 21.9095 19.9002 21.4408 18.1889 19.927C16.8575 18.749 15.9586 17.2944 15.6973 16.8494C15.436 16.4051 15.6693 16.1643 15.8939 15.9428C16.0952 15.7437 16.342 15.4239 16.5661 15.1645C16.7894 14.905 16.864 14.7198 17.0133 14.4234C17.1628 14.1268 17.088 13.8673 16.9762 13.645C16.864 13.4227 15.9936 11.2249 15.5954 10.3462Z" fill="white"/>
<defs>
<filter id="filter0_d_115_77" x="0.623413" y="0.621208" width="38.7531" height="38.6388" filterUnits="userSpaceOnUse" color-interpolation-filters="sRGB">
<feFlood flood-opacity="0" result="BackgroundImageFix"/>
<feColorMatrix in="SourceAlpha" type="matrix" values="0 0 0 0 0 0 0 0 0 0 0 0 0 0 0 0 0 0 127 0" result="hardAlpha"/>
<feOffset dy="2"/>
<feGaussianBlur stdDeviation="1"/>
<feComposite in2="hardAlpha" operator="out"/>
<feColorMatrix type="matrix" values="0 0 0 0 0 0 0 0 0 0 0 0 0 0 0 0 0 0 0.25 0"/>
<feBlend mode="normal" in2="BackgroundImageFix" result="effect1_dropShadow_115_77"/>
<feBlend mode="normal" in="SourceGraphic" in2="effect1_dropShadow_115_77" result="shape"/>
</filter>
<linearGradient id="paint0_linear_115_77" x1="1740.28" y1="3464.51" x2="1740.28" y2="0.621208" gradientUnits="userSpaceOnUse">
<stop stop-color="#1FAF38"/>
<stop offset="1" stop-color="#60D669"/>
</linearGradient>
<linearGradient id="paint1_linear_115_77" x1="1802" y1="3588.1" x2="1802" y2="0" gradientUnits="userSpaceOnUse">
<stop stop-color="#F9F9F9"/>
<stop offset="1" stop-color="white"/>
</linearGradient>
</defs>
</svg>
